<svg t="1666148757481" class="icon" viewBox="0 0 1024 1024" version="1.1" xmlns="http://www.w3.org/2000/svg" p-id="1500" width="200" height="200"><path d="M482.773333 146.986667A32 32 0 0 1 512 128a384 384 0 0 1 384 384 32 32 0 0 1-64 0 320.128 320.128 0 0 0-238.805333-309.589333l38.570666 42.837333a32 32 0 1 1-47.530666 42.837333l-96-106.666666a32 32 0 0 1-5.461334-34.432zM160 480a32 32 0 0 1 32 32 320.128 320.128 0 0 0 238.805333 309.589333l-38.570666-42.837333a32 32 0 1 1 47.530666-42.837333l96 106.666666A32 32 0 0 1 512 896a384 384 0 0 1-384-384 32 32 0 0 1 32-32zM394.666667 405.333333a10.666667 10.666667 0 0 0-10.666667 10.666667v21.333333a32 32 0 0 1-64 0v-21.333333C320 374.784 353.450667 341.333333 394.666667 341.333333h42.666666c41.216 0 74.666667 33.450667 74.666667 74.666667V469.333333a74.666667 74.666667 0 0 1-74.666667 74.666667h-21.333333a32 32 0 0 1 0-64h21.333333a10.666667 10.666667 0 0 0 10.666667-10.666667V416a10.666667 10.666667 0 0 0-10.666667-10.666667h-42.666666z" fill="#222222" p-id="1501"></path><path d="M384 512a32 32 0 0 1 32-32h21.333333c41.216 0 74.666667 33.450667 74.666667 74.666667v53.333333A74.666667 74.666667 0 0 1 437.333333 682.666667h-42.666666a74.666667 74.666667 0 0 1-74.666667-74.666667v-20.266667a32 32 0 0 1 64 0v20.266667c0 5.888 4.778667 10.666667 10.666667 10.666667h42.666666a10.666667 10.666667 0 0 0 10.666667-10.666667V554.666667a10.666667 10.666667 0 0 0-10.666667-10.666667h-21.333333A32 32 0 0 1 384 512zM597.333333 405.333333h21.333334a42.666667 42.666667 0 0 1 42.666666 42.666667v128a42.666667 42.666667 0 0 1-42.666666 42.666667H597.333333v-213.333334zM576 341.333333a42.666667 42.666667 0 0 0-42.666667 42.666667v256a42.666667 42.666667 0 0 0 42.666667 42.666667h42.666667a106.666667 106.666667 0 0 0 106.666666-106.666667v-128A106.666667 106.666667 0 0 0 618.666667 341.333333h-42.666667z" fill="#222222" p-id="1502"></path></svg>