<svg t="1659861404435" class="icon" viewBox="0 0 1024 1024" version="1.1" xmlns="http://www.w3.org/2000/svg" p-id="13410" width="200" height="200"><path d="M238.65 647.58l253.84 163.66h0.07q1 0.63 2 1.2a1.18 1.18 0 0 1 0.19 0.11c0.72 0.39 1.45 0.76 2.19 1.1l0.72 0.3c0.51 0.22 1 0.44 1.54 0.64l0.86 0.31 1.45 0.48 0.92 0.26c0.48 0.13 1 0.25 1.45 0.36l0.92 0.21c0.5 0.1 1 0.18 1.5 0.26l0.88 0.14c0.55 0.08 1.1 0.13 1.65 0.18l0.75 0.07c0.8 0.05 1.6 0.08 2.4 0.08 0.8 0 1.6 0 2.4-0.08l0.75-0.07c0.55-0.05 1.1-0.1 1.65-0.18l0.88-0.14c0.5-0.08 1-0.16 1.5-0.26l0.93-0.21 1.44-0.36 0.92-0.27c0.48-0.14 1-0.31 1.44-0.47l0.87-0.31c0.52-0.2 1-0.42 1.54-0.64l0.72-0.31c0.74-0.33 1.47-0.7 2.19-1.09l0.15-0.08c0.7-0.39 1.38-0.79 2.05-1.22h0.07l253.87-163.67a46.41 46.41 0 0 0 21.34-39.15V337v-0.16a36.71 36.71 0 0 0-0.3-4.46l-0.09-0.61c-0.08-0.55-0.17-1.1-0.28-1.65 0-0.18-0.06-0.36-0.1-0.54-0.15-0.68-0.31-1.36-0.49-2l-0.15-0.5c-0.16-0.55-0.33-1.09-0.51-1.63l-0.18-0.53a37.65 37.65 0 0 0-1.75-4.08l-0.11-0.21c-0.33-0.66-0.69-1.3-1.06-1.94a35.26 35.26 0 0 0-2.67-3.89l-0.05-0.06a36.42 36.42 0 0 0-4.8-5l-0.38-0.31c-0.46-0.38-0.93-0.76-1.41-1.12l-0.4-0.3c-0.56-0.41-1.13-0.81-1.73-1.19l-253-163.09a46.65 46.65 0 0 0-50.48 0L233.81 306.7c-0.6 0.38-1.17 0.78-1.73 1.19l-0.4 0.3c-0.48 0.36-1 0.74-1.41 1.12l-0.38 0.31a36.42 36.42 0 0 0-4.8 5l-0.05 0.06a35.26 35.26 0 0 0-2.67 3.89c-0.38 0.64-0.74 1.28-1.07 1.94l-0.11 0.21a35.77 35.77 0 0 0-1.75 4.08l-0.18 0.53c-0.18 0.54-0.35 1.08-0.51 1.63 0 0.17-0.1 0.33-0.14 0.5-0.19 0.67-0.35 1.36-0.5 2 0 0.18-0.06 0.36-0.1 0.53-0.11 0.55-0.2 1.11-0.28 1.67l-0.09 0.59a37.18 37.18 0 0 0-0.3 4.48v271.7a46.41 46.41 0 0 0 21.31 39.15zM289.31 403L476 523.36v191.58L289.31 594.57z m445.38 191.57L548 714.94V523.36L734.69 403zM512 213l192.25 124L512 460.91 319.75 337z" p-id="13411" fill="#2c2c2c"></path><path d="M895.71 733a46.25 46.25 0 0 0-52.48 5.9C793.39 782.07 661.35 882.61 512 882.61c-156.48 0-291-101.43-345.78-161.36a36 36 0 1 0-53.13 48.58c40.37 44.16 97.26 87.71 156.09 119.48 80.21 43.33 161.9 65.3 242.82 65.3 72.52 0 147.8-19.25 223.74-57.22a732.12 732.12 0 0 0 105-64.53l-4.5 35.83a36 36 0 0 0 71.44 9L920 779.83A46.22 46.22 0 0 0 895.71 733z" p-id="13412" fill="#2c2c2c"></path></svg>