<svg t="1651040121422" class="icon" viewBox="0 0 1024 1024" version="1.1" xmlns="http://www.w3.org/2000/svg" p-id="6380" width="200" height="200"><path d="M317.064455 551.959229c-11.256121 0-22.61457-4.297792-31.210153-12.893375-17.191166-17.191166-17.191166-45.126811 0-62.317978L682.78605 79.816129c17.191166-17.191166 45.126811-17.191166 62.317977 0 17.191166 17.191166 17.191166 45.126811 0 62.317977L348.172279 539.065854c-8.595583 8.595583-19.851704 12.893375-31.107824 12.893375z" p-id="6381" fill="#ffffff"></path><path d="M713.893874 948.890976c-11.256121 0-22.61457-4.297792-31.210153-12.893374L285.854302 539.065854c-17.191166-17.191166-17.191166-45.126811 0-62.317978 17.191166-17.191166 45.126811-17.191166 62.317977 0L745.104027 873.679624c17.191166 17.191166 17.191166 45.126811 0 62.317978-8.595583 8.595583-19.851704 12.893375-31.210153 12.893374z" p-id="6382" fill="#ffffff"></path></svg>