<svg t="1654325132560" class="icon" viewBox="0 0 1637 1024" version="1.1" xmlns="http://www.w3.org/2000/svg" p-id="9673" width="128" height="128"><path d="M320.647458 0.126455h407.917747a77.681728 77.681728 0 0 1 77.681728 103.398281L616.831213 918.296097a137.982612 137.982612 0 0 1-126.986568 103.398281h-407.917747a77.681728 77.681728 0 0 1-77.504372-103.398281L195.434445 104.588869A138.692034 138.692034 0 0 1 322.243658 1.367943z m0 0" fill="#E03333" p-id="9674"></path><path d="M694.15823 0.126455H1160.248595c56.399062 0 31.03722 46.644508 17.735554 103.398281L990.16463 918.296097c-13.12431 57.108485-8.867777 103.398281-65.976262 103.398281H457.920648a77.681728 77.681728 0 0 1-77.681728-103.398281L570.186706 104.588869A137.095834 137.095834 0 0 1 696.463852 1.367943z m0 0" fill="#004889" p-id="9675"></path><path d="M1144.463952 0.126455h406.676258a77.681728 77.681728 0 0 1 77.681728 103.398281L1438.519441 918.296097a137.982612 137.982612 0 0 1-126.986569 103.398281H904.856614a77.681728 77.681728 0 0 1-77.681727-103.398281L1017.654739 104.588869A137.982612 137.982612 0 0 1 1144.818663 1.367943z m0 0" fill="#008089" p-id="9676"></path><path d="M1075.650001 739.52171h38.840864l11.350755-36.535242h-37.067309z m31.923998-102.511503l-13.12431 43.097397a221.871783 221.871783 0 0 1 22.169443-9.754555l19.509109-3.1924 8.867777-30.327798h-37.244664z m20.218532-62.251796l-13.12431 41.501197a132.48459 132.48459 0 0 1 22.169442-8.158355 82.470327 82.470327 0 0 1 19.50911-2.305622l8.867777-30.327797z m84.775949 0l-49.659552 164.763299h13.12431l-10.463977 33.342842h-13.479021l-3.1924 10.463977H1099.947711l3.192399-10.463977h-95.06257l9.754554-31.03722h9.754555l50.54633-167.068921 9.754555-33.342842H1135.418819l-4.965955 17.735555a97.900259 97.900259 0 0 1 25.184487-12.060177c12.060177-3.1924 81.583549-4.256533 81.583549-4.256533l-10.463977 33.342842z m0 0" fill="#FFFFFF" p-id="9677"></path><path d="M1232.254945 540.528792h50.901041v18.622332c0 3.1924 2.305622 4.965955 8.158355 4.965955h10.463977l-9.754555 31.923998h-27.667465c-23.765643 0-33.342842-8.867777-32.63342-20.218532z m6.562155 150.042789h-48.95013l8.158355-27.667465h55.512285l8.158355-24.297709h-56.221707l9.754555-31.923998h155.363455l-9.754555 31.923998h-51.787818l-8.158355 25.184487h51.255752l-8.158355 27.667464h-55.512285l-9.754555 11.350755h22.878865l5.852733 35.471108a51.787818 51.787818 0 0 0 0 7.448933h18.622332l-10.463977 35.471109h-17.735554a79.100572 79.100572 0 0 1-12.060177 0 42.56533 42.56533 0 0 1-12.060177-4.965956 16.31671 16.31671 0 0 1-8.867777-12.060176L1259.567699 727.284178l-25.184487 35.471108a44.338886 44.338886 0 0 1-38.840864 19.50911h-35.471109l8.867777-31.03722h14.011088a17.735554 17.735554 0 0 0 9.754555-3.1924 13.12431 13.12431 0 0 0 7.448933-6.562155z m-538.451426-76.617595h130.533679l-9.754555 31.03722h-50.191618L762.97218 671.062471h53.206663l-9.754555 31.923997h-53.738729L739.206538 745.019732c0 5.143311 12.060177 5.852733 17.735554 5.852733l26.071265-3.1924-10.463977 35.471109h-58.704685a89.91926 89.91926 0 0 1-14.011088 0 15.252577 15.252577 0 0 1-9.754555-7.448933 12.769599 12.769599 0 0 1-3.015044-14.011088l17.735554-57.108485H674.294409l9.754555-32.633419h29.618375l8.158355-26.071265H692.029963z m88.677771-55.512284h53.206663l-9.754555 32.633419h-70.942217l-8.158355 6.562155a79.98735 79.98735 0 0 0-8.867777 3.901822 48.063352 48.063352 0 0 1-23.765643 6.562155h-24.297709l9.754555-31.03722h7.448932a38.486153 38.486153 0 0 0 12.060177 0 35.471108 35.471108 0 0 0 7.981-9.399843l13.301665-24.829776h53.206663z m101.802081 53.206662a84.066527 84.066527 0 0 1 38.840864-17.735554h38.840864l5.852733-17.735554h-72.361062z m70.942217 14.011088h-73.425194l-4.965956 14.72051h64.557418a30.150442 30.150442 0 0 1 9.754555 0z m-97.190837-84.775949h45.580374l-6.562155 22.878865a145.786256 145.786256 0 0 1 24.475065-15.607288 195.091096 195.091096 0 0 1 32.63342-7.448933h73.425194L1011.269939 623.708541a91.338104 91.338104 0 0 1-12.060176 27.667465 28.022176 28.022176 0 0 1-12.060177 11.350754 53.206663 53.206663 0 0 1-17.735555 5.852733h-95.06257l-18.622332 66.508329a16.671421 16.671421 0 0 0 0 11.350754 7.448933 7.448933 0 0 0 6.562155 3.1924l31.03722-3.1924-10.463977 35.471109h-35.471109a192.430763 192.430763 0 0 1-24.475064 0 21.637376 21.637376 0 0 1-14.72051-3.1924 20.573243 20.573243 0 0 1-8.158355-10.463977 83.002394 83.002394 0 0 1 3.901822-17.735554z m0 0" fill="#FFFFFF" p-id="9678"></path><path d="M997.436207 674.964293l-3.901822 19.509109a24.120354 24.120354 0 0 1-8.158355 14.72051 32.63342 32.63342 0 0 1-24.475065 8.867778h-25.184487v22.878865c0 6.562155 0 5.852733 2.305622 6.562155a6.207444 6.207444 0 0 0 3.1924 0h31.923998L963.383943 780.49084h-27.667465a82.647683 82.647683 0 0 1-38.840863-4.256533 12.237532 12.237532 0 0 1-4.965956-13.479021v-88.677771h43.984175v17.735554h17.735554a7.448933 7.448933 0 0 0 3.1924-4.965955l3.724466-12.769599z m-627.83862-413.77048c0 7.448933-29.618376 137.982612-30.327797 137.982612a95.594637 95.594637 0 0 1-25.184487 57.108484 43.806819 43.806819 0 0 1-30.327798 10.463977 27.135398 27.135398 0 0 1-31.03722-26.780687v-5.498021l5.852733-35.471109s29.618376-118.828213 35.471108-134.435501a413.061058 413.061058 0 0 1-68.459239 0v8.690422L195.434445 404.674446l-2.305622 11.350755-5.320666 36.357886a60.655595 60.655595 0 0 0 6.562155 27.667465c14.011088 24.475065 53.206663 27.667465 75.021394 27.667464a150.042789 150.042789 0 0 0 73.425195-17.735554 109.605725 109.605725 0 0 0 46.644507-73.070483l3.1924-13.12431s30.327798-124.14888 35.471108-139.401457a517.168761 517.168761 0 0 1-58.704684-2.305622m168.665121 245.460071h-51.078397c2.305622-8.867777 3.901822-17.735554 6.562156-26.780687l3.369755-11.705466a440.0191 440.0191 0 0 0 9.399844-51.610463 12.060177 12.060177 0 0 0-9.399844-14.72051 42.210619 42.210619 0 0 0-15.607288 4.965956c-3.1924 10.463977-8.867777 38.840864-11.350755 52.142529-5.852733 27.667465-6.562155 31.03722-8.867777 44.693597H408.261096c4.256533-16.31671 8.158355-32.63342 12.060177-49.659552 9.754555-44.693597 12.060177-61.719729 15.607287-84.775949 23.765643-3.015044 29.618376-4.256533 54.802863-8.867777l2.305622 2.305622-3.901822 14.011087 13.12431-7.448932a82.470327 82.470327 0 0 1 32.63342-7.448933 27.667465 27.667465 0 0 1 28.376887 16.31671c4.965955 11.350755 0 26.071265-5.143311 53.206662l-3.015044 14.011088c-6.562155 31.03722-7.448933 36.535242-11.350755 57.817907z m84.243882-29.973087H567.881084a212.826651 212.826651 0 0 1 6.562155-20.218532 97.013482 97.013482 0 0 0 5.852733-20.218531c3.1924-15.607288 5.852733-26.071265 7.448932-35.471109s2.305622-17.735554 3.901822-26.071265l27.844821-3.015044a137.627901 137.627901 0 0 0 28.376886-4.965955l-7.448932 29.44102c-2.305622 9.754555-4.965955 19.50911-6.562156 29.618376-4.965955 20.218532-6.562155 28.376887-7.448932 33.342842a80.696772 80.696772 0 0 1-3.1924 18.622332z m130.533679-71.828994a99.141748 99.141748 0 0 1-12.060177 33.342842 20.573243 20.573243 0 0 1-15.607287 9.754554c-6.3848 0-11.350755 0-12.060177-14.72051a116.699947 116.699947 0 0 1 3.1924-22.878865c5.852733-23.765643 11.350755-43.984174 27.667464-43.984174s14.72051 14.011088 8.867777 38.840864m53.206663 0a62.961218 62.961218 0 0 0-5.852733-54.802863 59.059396 59.059396 0 0 0-48.95013-17.735554A88.677771 88.677771 0 0 0 690.256408 354.837539a100.205881 100.205881 0 0 0-28.731598 53.206663c-3.901822 18.622332-9.754555 53.206663 22.169443 66.863039a96.126704 96.126704 0 0 0 33.342842 5.852733 87.081571 87.081571 0 0 0 65.266839-25.184487A112.266058 112.266058 0 0 0 804.473377 408.044202m533.13076-71.828995c-25.184487 5.143311-32.63342 5.852733-57.108484 8.867777s0 3.901822 0 5.852733a32.988131 32.988131 0 0 0-17.735555-14.72051 70.942217 70.942217 0 0 0-58.704684 21.282665 100.205881 100.205881 0 0 0-26.780687 53.206663c-3.901822 18.622332-9.754555 53.206663 22.169443 65.976262a60.655595 60.655595 0 0 0 28.376887 4.965955 50.54633 50.54633 0 0 0 26.780686-12.060177l-2.305622 8.158355h57.108485c3.1924-21.282665 7.448933-41.501197 16.31671-82.292972 3.901822-19.50911 8.867777-38.840864 14.011088-57.817907z m-81.583549 106.413325a28.376887 28.376887 0 0 1-19.50911 9.754555c-7.448933 0-11.350755 0-12.060177-14.72051a116.877302 116.877302 0 0 1 3.1924-22.878865c5.852733-22.878865 11.350755-43.097397 27.667465-43.097396s15.607288 9.754555 14.72051 26.071264a101.979437 101.979437 0 0 1-3.015045 13.12431l-5.14331 21.282665a67.395106 67.395106 0 0 1-5.852733 10.463977m-310.904266 63.847996h-51.255752a97.013482 97.013482 0 0 1 6.562155-27.490109l2.305623-12.060177a440.196456 440.196456 0 0 0 8.867777-48.95013 12.060177 12.060177 0 0 0-9.754555-14.72051A42.56533 42.56533 0 0 0 887.12106 408.044202c-3.1924 10.463977-8.867777 38.840864-11.350755 52.142529-6.3848 28.376887-6.3848 31.923998-9.577199 45.403019h-51.965174c3.901822-16.31671 8.158355-32.63342 12.060177-49.659552 9.754555-44.693597 12.060177-61.719729 15.607288-84.775949 23.765643-3.015044 29.618376-4.256533 54.802862-8.867777v2.305622l-4.256533 14.011088 12.414888-7.448933a82.292972 82.292972 0 0 1 32.63342-7.448933 27.667465 27.667465 0 0 1 28.376887 16.31671c4.965955 11.350755 0 26.071265-5.143311 53.206663l-2.660333 14.543154c-6.3848 31.214575-7.094222 36.535242-10.996044 57.817907v2.305622z m0 0" fill="#FFFFFF" p-id="9679"></path><path d="M1123.003931 261.193813h-17.735554a656.215506 656.215506 0 0 1-69.168662 0v8.867777l-15.607287 73.425194-38.840864 163.876521h61.010306c0-7.448933 10.463977-50.54633 10.463977-50.546329s7.448933-31.923998 8.158355-33.342842a25.184487 25.184487 0 0 1 4.965956-4.965955h3.192399A164.763299 164.763299 0 0 0 1170.889927 396.516091a110.315147 110.315147 0 0 0 38.840864-63.670639 95.771993 95.771993 0 0 0 2.305622-22.169443 44.693597 44.693597 0 0 0-8.158355-27.667465c-15.607288-20.218532-44.693597-21.282665-79.987349-21.282665m22.169443 77.681728a51.610463 51.610463 0 0 1-27.667465 36.535242 88.677771 88.677771 0 0 1-38.840864 5.852732h-10.109266v-4.079177s17.735554-73.425194 17.735555-72.715772v-7.271578h6.562155l35.471108 3.015045a30.327798 30.327798 0 0 1 15.607288 38.840863m-501.561474 43.984175c14.011088-9.754555 15.607288-22.169443 3.901822-29.44102a45.048308 45.048308 0 0 0-44.693597 4.965955c-14.011088 8.867777-15.607288 22.169443-3.901821 29.618376a45.048308 45.048308 0 0 0 44.693596-5.143311M1507.865458 337.101985v-1.5962c-25.184487 5.143311-29.44102 5.852733-53.206663 8.867777-17.735554 38.840864-16.31671 31.03722-31.03722 62.961218v-3.901822l-2.660333-67.572462-1.773555-2.305622c-26.071265 4.965955-26.780687 5.852733-51.255752 8.867777v2.305622a321.545598 321.545598 0 0 1 5.852733 36.535242 214.777562 214.777562 0 0 0 4.965955 35.471108c2.305622 19.50911 4.256533 30.327798 6.562155 60.300885-16.31671 26.780687-20.218532 38.840864-35.471108 61.010306l-11.350755 17.735554a8.33571 8.33571 0 0 1-3.901822 3.1924 17.735554 17.735554 0 0 1-7.448933 0h-7.094222l-8.867777 31.03722h31.923998a38.840864 38.840864 0 0 0 36.535242-20.218532l19.509109-34.229619 2.305622-1.950911c10.463977-26.071265 112.620769-201.29854 112.62077-201.298541z m0 0" fill="#FFFFFF" p-id="9680"></path></svg>