<svg t="1666146340737" class="icon" viewBox="0 0 1024 1024" version="1.1" xmlns="http://www.w3.org/2000/svg" p-id="2707" width="200" height="200"><path d="M882.688 81.92H385.31584a64.1536 64.1536 0 0 0-64.512 63.6672v163.01056H156.0576A68.64384 68.64384 0 0 0 87.04 376.72448V873.984A68.64384 68.64384 0 0 0 156.0576 942.08h247.43936a28.6208 28.6208 0 0 0 4.42368-0.44032H882.688a64.1536 64.1536 0 0 0 64.512-63.64672V145.57184A64.1536 64.1536 0 0 0 882.688 81.92zM144.12288 873.984V376.72448a11.87328 11.87328 0 0 1 11.93472-11.776h164.77184v513.024a62.976 62.976 0 0 0 0.512 7.76192H156.0576a11.87328 11.87328 0 0 1-11.93472-11.7504z m745.984 4.0192a7.3728 7.3728 0 0 1-7.41376 7.3216H385.31584a7.3728 7.3728 0 0 1-7.41376-7.3216V145.57184A7.37792 7.37792 0 0 1 385.31584 138.24H882.688a7.3728 7.3728 0 0 1 7.41376 7.3216v732.43136z" fill="#0066ed" p-id="2708"></path><path d="M805.06368 364.32384H463.19104a28.19584 28.19584 0 1 1 0-56.38656h341.87264a28.19584 28.19584 0 1 1 0 56.38656z m0 178.07872H463.19104a28.19584 28.19584 0 1 1 0-56.38656h341.87264a28.19584 28.19584 0 1 1 0 56.38656z m-102.73792 173.66528H463.19104a28.19584 28.19584 0 1 1 0-56.38656h239.13472a28.19584 28.19584 0 1 1 0 56.38656z" fill="#FD9A16" p-id="2709"></path></svg>