<svg t="1659804948471" class="icon" viewBox="0 0 1024 1024" version="1.1" xmlns="http://www.w3.org/2000/svg" p-id="2288" width="200" height="200"><path d="M507.904 621.056c-62.72 0-113.92-50.944-113.92-113.92 0-15.872 12.8-28.672 28.672-28.672 15.872 0 28.672 12.8 28.672 28.672a56.576 56.576 0 0 0 113.152 0c0-15.872 12.8-28.672 28.672-28.672 15.872 0 28.672 12.8 28.672 28.672 0 62.976-51.2 113.92-113.92 113.92z" fill="#005CFF" p-id="2289"></path><path d="M816.64 405.248c-2.048-41.984-40.448-74.752-87.552-74.752h-50.176v-48.384c0-50.944-41.472-92.416-92.416-92.416h-157.44c-50.944 0-92.416 41.472-92.416 92.416v48.384H286.72c-47.104 0-85.504 32.768-87.552 74.752L181.76 773.12c-1.024 19.712 6.4 38.912 20.736 54.016 16.64 17.408 40.96 27.392 66.816 27.392h477.696c25.856 0 50.176-9.984 66.816-27.392 14.336-15.104 21.76-34.304 20.736-54.016l-17.92-367.872z m-422.912-123.136c0-19.456 15.872-35.328 35.328-35.328h157.44c19.456 0 35.328 15.872 35.328 35.328v46.592h-228.096v-46.592z m-107.008 105.472h442.624c17.664 0 29.952 10.496 30.464 20.224l3.328 70.656H252.928l3.328-70.656c0.512-9.728 12.8-20.224 30.464-20.224z m485.376 400.128c-5.888 6.144-15.36 9.728-25.344 9.728H269.056c-9.984 0-19.456-3.584-25.344-9.728-2.304-2.56-5.376-6.656-5.12-11.776l11.52-239.872h515.584l11.52 239.872c0.256 5.12-2.56 9.216-5.12 11.776z" fill="#1B1F28" p-id="2290"></path></svg>