<svg t="1659804840330" class="icon" viewBox="0 0 1024 1024" version="1.1" xmlns="http://www.w3.org/2000/svg" p-id="1785" width="200" height="200"><path d="M507.904 852.736c-182.272 0-330.752-148.48-330.752-330.752s148.48-330.752 330.752-330.752 330.752 148.48 330.752 330.752-148.224 330.752-330.752 330.752z m0-600.576c-148.736 0-269.824 121.088-269.824 269.824s121.088 269.824 269.824 269.824 269.824-121.088 269.824-269.824S656.896 252.16 507.904 252.16z" fill="#1B1F28" p-id="1786"></path><path d="M382.464 465.408m-37.888 0a37.888 37.888 0 1 0 75.776 0 37.888 37.888 0 1 0-75.776 0Z" fill="#005CFF" p-id="1787"></path><path d="M629.504 469.248m-37.888 0a37.888 37.888 0 1 0 75.776 0 37.888 37.888 0 1 0-75.776 0Z" fill="#005CFF" p-id="1788"></path><path d="M431.872 630.016c0-41.984 152.064-41.984 152.064 0a76.032 76.032 0 0 1-152.064 0z" fill="#005CFF" p-id="1789"></path></svg>