<svg t="1666146309623" class="icon" viewBox="0 0 1024 1024" version="1.1" xmlns="http://www.w3.org/2000/svg" p-id="2540" width="200" height="200"><path d="M882.23744 239.0272H146.8672A64.97792 64.97792 0 0 0 81.92 303.90784v144.57344a64.9472 64.9472 0 0 0 47.89248 62.53568v371.29728A64.98304 64.98304 0 0 0 194.75968 947.2h639.58528a64.98304 64.98304 0 0 0 64.93184-64.88064V511.02208a64.95232 64.95232 0 0 0 47.89248-62.53568V303.90784a64.97792 64.97792 0 0 0-64.93184-64.88064zM139.40224 303.90784a7.47008 7.47008 0 0 1 7.46496-7.45984h735.37024a7.47008 7.47008 0 0 1 7.45984 7.45984v144.57344a7.47008 7.47008 0 0 1-7.45984 7.45984H146.8672a7.47008 7.47008 0 0 1-7.46496-7.45984V303.90784z m694.94272 585.87136H194.75968a7.47008 7.47008 0 0 1-7.46496-7.45984v-368.95744h654.5152v368.95744a7.47008 7.47008 0 0 1-7.46496 7.45984z" fill="#0066ed" p-id="2541"></path><path d="M822.4768 117.33504c-22.07744-25.69216-54.00576-37.77024-92.37504-34.97984-70.79424 5.19168-159.56992 62.72512-215.552 137.47712C458.5728 145.08032 369.80224 87.552 299.008 82.3552c-38.43072-2.83648-70.2976 9.28768-92.36992 34.97984-27.67872 32.20992-29.30176 62.00832-25.78432 81.33632a99.95264 99.95264 0 0 0 18.23744 40.96h84.992a28.41088 28.41088 0 0 0-8.93952-7.68c-7.08608-3.86048-34.304-22.57408-38.13376-43.59168-0.6912-3.79904-2.7904-15.36 12.83072-33.536 10.10176-11.776 24.832-16.75264 45.056-15.26784 59.27424 4.34688 143.03744 64 186.72128 132.99712a28.37504 28.37504 0 0 0 5.05344 5.82144V947.2h57.06752V277.35552a28.45696 28.45696 0 0 0 3.85024-4.79744c43.68384-68.992 127.44704-128.65024 186.72128-132.99712 20.15232-1.4848 34.93376 3.51232 45.056 15.26784 15.56992 18.11456 13.52704 29.62944 12.85632 33.41312-3.6096 20.34688-29.45024 38.86592-38.2464 43.76576a28.41088 28.41088 0 0 0-8.85248 7.63392h84.992a99.99872 99.99872 0 0 0 18.23232-40.96c3.4304-19.33824 1.80736-49.13664-25.87136-81.34656z" fill="#FD9A16" p-id="2542"></path></svg>