	<svg t="1657445622439" class="icon" viewBox="0 0 1024 1024" version="1.1" xmlns="http://www.w3.org/2000/svg" p-id="13638" width="128" height="128"><path d="M612.266667 283.733333h-211.2l-8.533334-8.533333c-14.933333-14.933333-66.133333-64-72.533333-104.533333-2.133333-23.466667 10.666667-44.8 34.133333-55.466667l4.266667-2.133333c2.133333 0 76.8-17.066667 145.066667-17.066667h6.4c68.266667 0 140.8 17.066667 142.933333 17.066667l4.266667 2.133333c25.6 10.666667 38.4 32 36.266666 55.466667-4.266667 40.533333-55.466667 89.6-72.533333 104.533333l-8.533333 8.533333z m-185.6-64h160c17.066667-17.066667 29.866667-34.133333 38.4-46.933333-23.466667-4.266667-74.666667-12.8-117.333334-12.8-44.8 0-93.866667 8.533333-119.466666 12.8 8.533333 12.8 23.466667 32 38.4 46.933333z" p-id="13639"></path><path d="M507.733333 936.533333c-266.666667 0-396.8-102.4-396.8-311.466666 0-166.4 128-341.333333 290.133334-398.933334l4.266666-2.133333h198.4l4.266667 2.133333c164.266667 55.466667 290.133333 232.533333 290.133333 398.933334 0 93.866667-23.466667 164.266667-74.666666 215.466666-59.733333 66.133333-164.266667 96-315.733334 96z m-89.6-646.4c-134.4 49.066667-243.2 198.4-243.2 337.066667C174.933333 748.8 213.333333 874.666667 507.733333 874.666667c132.266667 0 224-25.6 275.2-76.8 38.4-38.4 57.6-93.866667 57.6-170.666667 0-138.666667-108.8-288-243.2-337.066667h-179.2z" p-id="13640"></path><path d="M605.866667 608c14.933333 0 27.733333 12.8 27.733333 27.733333 0 14.933333-12.8 27.733333-27.733333 27.733334h-57.6v34.133333c0 19.2-14.933333 34.133333-36.266667 34.133333-19.2 0-36.266667-14.933333-36.266667-34.133333v-34.133333h-55.466666c-14.933333 0-27.733333-12.8-27.733334-27.733334 0-14.933333 12.8-27.733333 27.733334-27.733333h55.466666v-27.733333h-55.466666c-14.933333 0-27.733333-12.8-27.733334-27.733334 0-14.933333 12.8-27.733333 27.733334-27.733333h51.2c0-2.133333 2.133333-4.266667 2.133333-4.266667l-64-61.866666c-8.533333-8.533333-6.4-23.466667 6.4-34.133334 10.666667-10.666667 25.6-12.8 34.133333-6.4l61.866667 61.866667 57.6-61.866667c8.533333-10.666667 27.733333-6.4 38.4 4.266667s17.066667 21.333333 6.4 34.133333l-66.133333 68.266667v2.133333h57.6c14.933333 0 27.733333 12.8 27.733333 27.733334 0 14.933333-12.8 27.733333-27.733333 27.733333h-57.6v27.733333h57.6z" fill="#FFAA00" p-id="13641"></path></svg>