<svg t="1659804764061" class="icon" viewBox="0 0 1024 1024" version="1.1" xmlns="http://www.w3.org/2000/svg" p-id="1288" width="200" height="200"><path d="M794.112 659.968h-211.968a134.4 134.4 0 1 1 0-268.8h211.968v56.576h-211.968c-42.752 0-77.824 34.816-77.824 77.824 0 42.752 34.816 77.824 77.824 77.824h211.968v56.576z" fill="#005CFF" p-id="1289"></path><path d="M709.632 836.608H306.176c-62.208 0-112.896-50.688-112.896-112.896V320.256c0-62.208 50.688-112.896 112.896-112.896h403.456c62.208 0 112.896 50.688 112.896 112.896v403.456c0 62.208-50.688 112.896-112.896 112.896zM306.176 264.192c-30.976 0-56.32 25.344-56.32 56.32v403.456c0 30.976 25.344 56.32 56.32 56.32h403.456c30.976 0 56.32-25.344 56.32-56.32V320.256c0-30.976-25.344-56.32-56.32-56.32H306.176z" fill="#1B1F28" p-id="1290"></path></svg>