<svg t="1666593524367" class="icon" viewBox="0 0 1024 1024" version="1.1" xmlns="http://www.w3.org/2000/svg" p-id="1135" width="200" height="200"><path d="M512 46.08a465.92 465.92 0 1 0 465.92 465.92 466.432 466.432 0 0 0-465.92-465.92z m0 862.208a396.288 396.288 0 1 1 396.288-396.288 396.74368 396.74368 0 0 1-396.288 396.288z" fill="#005CFF" p-id="1136"></path><path d="M546.816 480.21504V377.50272a60.34432 60.34432 0 0 1 40.00256 46.86848 34.816 34.816 0 0 0 69.05344-8.77056 131.35872 131.35872 0 0 0-109.056-110.208V267.264a34.816 34.816 0 0 0-69.632 0v38.05696c-84.76672 14.78656-108.48256 81.92-108.48256 119.45984 0 17.9456 8.4224 75.264 108.48256 108.34944v112.95232c-33.92512-12.23168-49.7152-40.13056-49.7152-50.2272a34.816 34.816 0 1 0-69.632 0c0 45.79328 44.5952 107.33568 119.33184 122.368v38.5024a34.816 34.816 0 1 0 69.632 0v-37.46816c81.66912-11.38688 119.33184-62.71488 119.33184-110.86336 0.01024-82.01728-73.3952-114.42176-119.31648-128.1792zM438.32832 424.79616c0-9.7792 3.48672-36.93568 38.8608-47.98976v81.7152c-29.9008-13.80864-38.56384-28.36992-38.8608-33.72544z m108.48768 223.87712v-94.60224c49.664 19.90656 49.7152 42.37824 49.7152 54.31808-0.00512 19.13344-19.31264 33.95584-49.7152 40.28416z" fill="#F19149" p-id="1137"></path></svg>
