<svg t="1666146362706" class="icon" viewBox="0 0 1024 1024" version="1.1" xmlns="http://www.w3.org/2000/svg" p-id="2874" width="200" height="200"><path d="M770.01216 259.83488a111.39584 111.39584 0 0 0 17.19296-47.93856c4.52608-38.26688-8.704-76.10368-37.27872-106.5472-50.2016-53.49376-110.11584-40.22272-134.77888-25.728l-82.23744 50.84672a31.32416 31.32416 0 0 1-17.408 4.5312h-1.35168a31.3344 31.3344 0 0 1-17.408-4.5312l-81.72544-50.53952-0.512-0.30208c-24.66304-14.49472-84.5824-27.76064-134.784 25.728-49.18784 52.41344-41.1904 111.7696-19.8144 149.85216A395.02336 395.02336 0 0 0 102.4 569.25184C102.4 788.95104 286.14656 967.68 512 967.68s409.6-178.73408 409.6-398.43328a396.288 396.288 0 0 0-151.58784-309.41184zM317.2352 143.06816c33.24928-35.4304 67.2768-18.65216 71.3728-16.43008l81.34656 50.29888a88.77056 88.77056 0 0 0 89.7792 0l81.21856-50.2272c4.91008-2.63168 38.5792-18.7136 71.48544 16.3584 23.36768 24.90368 24.36096 49.664 22.87616 62.23872-1.8176 15.3344-8.92928 27.3152-15.01696 31.232-79.15008 50.87744-159.06816 89.70752-193.44896 103.39328a25.6 25.6 0 0 1-18.80064 0.06656c-39.17312-15.26272-136.04864-55.45472-195.072-100.83328-12.6976-14.1824-33.85856-55.48032 4.25984-96.09728zM512 913.5616c-197.02272 0-357.30944-154.45504-357.30944-344.30976a340.864 340.864 0 0 1 142.68928-275.27168C361.66144 338.52928 451.5584 375.808 489.6 390.656a76.14976 76.14976 0 0 0 55.97184-0.19456c39.72608-15.80032 111.5392-51.57376 182.4-95.42144 89.8304 65.77664 141.3376 165.51424 141.3376 274.21184 0 189.85472-160.28672 344.30976-357.30944 344.30976z" fill="#0066ed" p-id="2875"></path><path d="M622.52544 641.6128H536.576v-37.64736h85.9648a27.136 27.136 0 0 0 0-54.21568h-56.4992l72.3456-75.40736a27.93472 27.93472 0 0 0 0-38.33856 25.27744 25.27744 0 0 0-36.78208 0l-89.74848 93.55264c-0.44032 0-0.85504-0.13312-1.30048-0.13312a25.088 25.088 0 0 0-3.9936 0.41472L416.5376 436.00896a25.27232 25.27232 0 0 0-36.77696 0 27.9296 27.9296 0 0 0 0 38.33856L452.096 549.74976H398.58176a27.136 27.136 0 0 0 0 54.21568h85.9648v37.64736h-85.9648a27.136 27.136 0 0 0 0 54.21568h85.9648v94.12096a26.03008 26.03008 0 1 0 52.01408 0V695.808h85.9648a27.136 27.136 0 0 0 0-54.1952z" fill="#FD9A16" p-id="2876"></path></svg>