<svg t="1659804806582" class="icon" viewBox="0 0 1024 1024" version="1.1" xmlns="http://www.w3.org/2000/svg" p-id="1453" width="200" height="200"><path d="M773.12 200.192H242.688c-66.816 0-121.088 54.272-121.088 121.088v401.152c0 66.816 54.272 121.088 121.088 121.088H773.12c66.816 0 121.088-54.272 121.088-121.088V321.536c0.256-66.816-54.272-121.344-121.088-121.344zM242.688 261.12H773.12c33.28 0 60.416 27.136 60.416 60.416v73.728H182.272v-73.728c0-33.28 27.136-60.416 60.416-60.416zM773.12 783.104H242.688c-33.28 0-60.416-27.136-60.416-60.416V455.936h651.264v266.752c0 33.28-27.136 60.416-60.416 60.416z" fill="#1B1F28" p-id="1454"></path><path d="M759.04 703.232H601.6c-16.896 0-30.464-13.568-30.464-30.464 0-16.896 13.568-30.464 30.464-30.464h157.44c16.896 0 30.464 13.568 30.464 30.464 0 16.896-13.568 30.464-30.464 30.464z" fill="#005CFF" p-id="1455"></path></svg>