<svg t="1666146427724" class="icon" viewBox="0 0 1024 1024" version="1.1" xmlns="http://www.w3.org/2000/svg" p-id="3208" width="200" height="200"><path d="M427.15648 870.4H128.384a63.35488 63.35488 0 0 1-48.73728-23.3216 79.67744 79.67744 0 0 1-17.31584-63.53408l28.28288-187.904c5.42208-35.99872 33.19808-62.1312 66.048-62.1312h242.21184c32.85504 0 60.63616 26.112 66.048 62.1312l28.28288 187.904a79.66208 79.66208 0 0 1-17.31584 63.53408A63.34976 63.34976 0 0 1 427.15648 870.4zM156.672 587.8016c-5.99552 0-11.7504 7.04512-13.10208 16.03584l-28.28288 187.904a25.33376 25.33376 0 0 0 4.99712 19.968 11.0592 11.0592 0 0 0 8.10496 4.40832h298.76736a11.06432 11.06432 0 0 0 8.11008-4.40832 25.33888 25.33888 0 0 0 4.99712-19.968l-28.28288-187.904c-1.35168-8.99072-7.10656-16.03584-13.10208-16.03584H156.672zM900.71552 870.4h-298.7776a63.36 63.36 0 0 1-48.73728-23.3216 79.70304 79.70304 0 0 1-17.31584-63.53408l28.28288-187.904c5.42208-35.99872 33.19808-62.1312 66.048-62.1312H872.448c32.85504 0 60.63104 26.112 66.048 62.1312l28.28288 187.904a79.66208 79.66208 0 0 1-17.31584 63.53408 63.36 63.36 0 0 1-48.74752 23.3216z m-270.4896-282.57792c-5.99552 0-11.7504 7.04512-13.10208 16.03584l-28.28288 187.904a25.30816 25.30816 0 0 0 4.992 19.968 11.06432 11.06432 0 0 0 8.10496 4.40832h298.7776a11.0592 11.0592 0 0 0 8.10496-4.40832 25.32864 25.32864 0 0 0 4.99712-19.968l-28.288-187.904c-1.34656-8.99072-7.10656-16.03584-13.09696-16.03584h-242.20672z" fill="#0066ed" p-id="3209"></path><path d="M667.87328 485.376H367.13984a63.9232 63.9232 0 0 1-49.05984-23.3216 79.29344 79.29344 0 0 1-17.408-63.53408l28.4672-187.87328C334.58176 174.62272 362.54208 148.48 395.61216 148.48h243.7888c33.07008 0 61.0304 26.112 66.48832 62.12608l28.47232 187.904a79.31392 79.31392 0 0 1-17.408 63.53408 63.92832 63.92832 0 0 1-49.08032 23.33184zM395.61216 202.7776c-6.03136 0-11.8272 7.04-13.184 16.03072l-28.47232 187.8784a25.21088 25.21088 0 0 0 5.02784 19.968 11.1616 11.1616 0 0 0 8.16128 4.40832h300.73344a11.1616 11.1616 0 0 0 8.16128-4.40832 25.21088 25.21088 0 0 0 5.02272-19.968l-28.4672-187.87328c-1.36192-8.99072-7.168-16.03072-13.18912-16.03072H395.61216z" fill="#FD9A16" p-id="3210"></path></svg>