<svg t="1659804907825" class="icon" viewBox="0 0 1024 1024" version="1.1" xmlns="http://www.w3.org/2000/svg" p-id="2121" width="200" height="200"><path d="M507.904 858.624c-185.6 0-336.64-151.04-336.64-336.64s151.04-336.64 336.64-336.64 336.64 151.04 336.64 336.64-151.04 336.64-336.64 336.64z m0-618.752c-155.648 0-282.112 126.464-282.112 282.112s126.464 282.112 282.112 282.112 282.112-126.464 282.112-282.112S663.552 239.872 507.904 239.872z" fill="#1B1F28" p-id="2122"></path><path d="M507.904 642.048c-13.568 0-27.392-5.12-37.632-15.616l-66.816-66.816c-9.984-9.984-15.616-23.552-15.616-37.632 0-14.336 5.632-27.648 15.616-37.632l66.816-66.816c20.736-20.736 54.528-20.736 75.264 0l66.816 66.816c9.984 9.984 15.616 23.552 15.616 37.632 0 14.336-5.632 27.648-15.616 37.632l-66.816 66.816c-10.24 10.496-23.808 15.616-37.632 15.616z m-65.28-120.064l65.28 65.28 65.28-65.28-65.28-65.28-65.28 65.28z" fill="#005CFF" p-id="2123"></path></svg>