<svg t="1666250502593" class="icon" viewBox="0 0 1024 1024" version="1.1" xmlns="http://www.w3.org/2000/svg" p-id="4862" width="200" height="200"><path d="M884.693333 268.074667h-127.616V138.112a32 32 0 0 0-32-32H139.306667a32 32 0 0 0-32 32v585.770667a32 32 0 0 0 32 32h127.616v129.962666a32 32 0 0 0 32 32h585.770666a32 32 0 0 0 32-32V300.074667a32 32 0 0 0-32-32z m-713.386666-98.133334h521.770666v521.770667H171.306667z m681.386666 683.733334H330.922667v-98.133334h394.24a32 32 0 0 0 32-32V331.733333h95.616z" p-id="4863" fill="#8a8a8a"></path></svg>
