<svg t="1666250836526" class="icon" viewBox="0 0 1024 1024" version="1.1" xmlns="http://www.w3.org/2000/svg" p-id="3800" width="200" height="200"><path d="M187.776 902.485333a79.146667 79.146667 0 0 1-81.066667-81.066666V222.506667a79.36 79.36 0 0 1 81.066667-81.066667h232.576a32.042667 32.042667 0 1 1 0 64H187.776a15.530667 15.530667 0 0 0-17.066667 17.066667v598.912a15.530667 15.530667 0 0 0 17.066667 17.066666h636.928a15.530667 15.530667 0 0 0 17.066667-17.066666v-363.093334a32 32 0 1 1 64 0v363.093334a79.146667 79.146667 0 0 1-81.066667 81.066666z m289.322667-134.656l-180.821334-181.077333a31.957333 31.957333 0 0 1 45.184-45.184l126.336 126.336v-129.493333c0-218.069333 186.752-405.077333 415.914667-416.682667a32.128 32.128 0 0 1 33.493333 30.336 31.701333 31.701333 0 0 1-30.336 33.578667 367.530667 367.530667 0 0 0-354.986666 352.768v129.493333l126.336-126.336a31.957333 31.957333 0 0 1 45.184 45.184l-180.821334 181.077333a32.298667 32.298667 0 0 1-45.397333 0z" p-id="3801"></path></svg>
