<svg t="1662706987946" class="icon" viewBox="0 0 1024 1024" version="1.1" xmlns="http://www.w3.org/2000/svg" p-id="1936" width="200" height="200"><path d="M870.134657 958.665992 685.464727 958.665992c-49.737798 0-90.203418-41.389666-90.203418-92.26538L595.261309 706.051601c0-14.347776-11.812023-26.019607-26.329668-26.019607L451.108165 680.031994c-14.519692 0-26.331715 11.67183-26.331715 26.019607l0 160.349011c0 50.875714-40.463574 92.26538-90.201371 92.26538l-180.572612 0c-49.736774 0-90.201371-41.389666-90.201371-92.26538l0-370.713136c0-32.289404 11.044544-63.676252 31.101345-88.378863 5.061272-6.229888 11.253298-11.739369 18.859533-16.773012L414.802284 102.162798c24.446785-25.100678 59.117422-39.489386 95.210455-39.49041 36.097126-0.001023 70.773903 14.386662 95.225805 39.492456L910.379243 390.537647c7.617491 5.043876 13.811564 10.55745 18.862603 16.783245 20.047592 24.694425 31.091112 56.08025 31.091112 88.367607l0 370.713136C960.331935 917.276327 919.869385 958.665992 870.134657 958.665992z" p-id="1937" fill="#00B7B6"></path></svg>