<svg t="1662706964948" class="icon" viewBox="0 0 1024 1024" version="1.1" xmlns="http://www.w3.org/2000/svg" p-id="1686" width="200" height="200"><path d="M869.043812 959.996291 687.444824 959.996291c-49.737798 0-90.203418-41.389666-90.203418-92.26538L597.241406 707.381899c0-14.347776-11.812023-26.019607-26.329668-26.019607l-117.823476 0c-14.519692 0-26.331715 11.67183-26.331715 26.019607l0 160.349011c0 50.875714-40.463574 92.26538-90.201371 92.26538l-182.619224 0c-49.736774 0-90.201371-41.389666-90.201371-92.26538l0-370.713136c0-32.289404 11.044544-63.676252 31.101345-88.378863 5.061272-6.229888 11.253298-11.739369 18.859533-16.773012L416.782382 103.493096c24.446785-25.100678 59.117422-39.489386 95.210455-39.49041 36.097126-0.001023 70.773903 14.386662 95.225805 39.492456l302.069757 288.372803c7.617491 5.043876 13.811564 10.55745 18.862603 16.783245 20.047592 24.694425 31.091112 56.08025 31.091112 88.367607l0 370.713136C959.241091 918.606625 918.77854 959.996291 869.043812 959.996291zM453.088262 617.917308l117.822452 0c49.502437 0 89.774653 40.134069 89.774653 89.464591l0 160.349011c0 15.891945 12.003382 28.820396 26.758434 28.820396l181.598988 0c14.750959 0 26.753317-12.928451 26.753317-28.820396l0-370.713136c0-18.029632-5.847172-34.761712-16.908088-48.387034-0.782829-0.963954-2.453888-2.562359-6.009877-4.745071-2.00261-1.228991-3.862981-2.677992-5.54632-4.317329l-304.709887-290.945395c-0.230244-0.223081-0.455371-0.450255-0.677429-0.680499-12.58155-13.025665-30.78719-20.4958-49.949622-20.494777-19.158339 0-37.359886 7.470135-49.937342 20.493753-0.223081 0.230244-0.449231 0.457418-0.679475 0.681522L155.646919 439.570387c-1.686409 1.64343-3.550873 3.094478-5.558599 4.325515-3.545756 2.174526-5.222955 3.778046-6.003737 4.739954-11.057847 13.619182-16.906042 30.352285-16.906042 48.381917l0 370.713136c0 15.891945 12.002358 28.820396 26.756387 28.820396l182.619224 0c14.753005 0 26.756387-12.928451 26.756387-28.820396L363.310539 707.381899C363.311563 658.051377 403.584802 617.917308 453.088262 617.917308z" p-id="1687" fill="#707070"></path></svg>