<svg t="1654343186667" class="icon" viewBox="0 0 1091 1024" version="1.1" xmlns="http://www.w3.org/2000/svg" p-id="2465" width="128" height="128"><path d="M868.102535 115.384368l23.176392-13.368051c17.348802-10.018862 39.577853-4.009458 49.64456 13.435035l145.833286 252.586314c10.066707 17.434924 4.162564 39.692682-13.186238 49.711544l-24.49693 14.143149c24.487361 156.234913-23.176392 321.665743-142.99126 442.054758-186.741246 187.650312-482.398139 199.181093-682.517005 34.563637L200.388947 921.878806c-17.348802 10.018862-39.577853 4.009458-49.64456-13.435035L4.911101 655.867025C-5.155606 638.422532 0.748536 616.164774 18.097339 606.145913l24.49693-14.14315C18.097339 435.76785 65.770661 270.33702 185.585529 149.948005 372.326775-37.702306 667.983668-49.233088 868.102535 115.384368z m171.028761 322.259029l-20.697992 11.951822c18.506665 142.417113-26.688257 291.599589-135.575197 401.012831-171.669893 172.502405-441.71027 185.908733-628.671605 40.218983l-20.678854 11.932684 1.760717 1.435367c195.822334 156.952596 481.95796 144.330936 663.254381-37.845843 116.264727-116.819735 163.124674-276.958846 140.60855-428.705844z m-40.850544 23.568726L794.152427 579.08446c-29.578129 107.767354-127.843354 186.91349-244.490845 186.91349-22.372587 0-44.065767-2.90901-64.735051-8.372974L274.319916 879.190991l0.966481 0.736822c178.205597 132.637479 430.925879 117.795785 592.452511-44.515515 101.757951-102.245976 145.268709-240.854582 130.541844-374.200175z m-67.270867-340.038441a24.879695 24.879695 0 0 0-33.970352-9.186349L23.848376 616.116929a24.879695 24.879695 0 0 0-9.023674 34.008628l145.833287 252.595884a24.879695 24.879695 0 0 0 33.970352 9.186349l873.172019-504.129596a24.879695 24.879695 0 0 0 9.023674-34.008629zM522.035552 810.121132l11.789148 27.750428 23.492173 5.645777-18.487527 19.367885 0.54544 25.855744-22.34388-13.27236-25.865313 6.239062 7.387355-23.473035-17.396648-24.506499 26.420322-0.066984 14.45893-23.540018z m220.185297-68.620112l20.71713 49.491454 42.965319 9.377731-34.611483 35.434427 0.133968 46.486752-40.620886-23.109409-47.730737 12.09536 14.363239-42.467725-31.128326-43.482051 48.553681-1.004757 27.358095-42.821782z m38.410421-154.608163L498.438119 749.81658c16.50672 3.569279 33.645002 5.444825 51.213894 5.444825 107.843907 0 199.286353-70.639194 230.998395-168.378118z m91.997455 20.812821l11.789148 27.750429 23.492173 5.645776-18.487527 19.367886 0.545439 25.855744-22.343879-13.27236-25.865313 6.239062 7.387355-23.473035-17.396648-24.5065 26.420322-0.066983 14.45893-23.540019z m-679.502735-450.150228C76.89954 274.365616 30.030023 434.504727 52.546147 586.251726l20.697992-11.942253c-18.181315-139.996127 25.166768-286.508821 130.044249-395.376624l5.530948-5.645776 5.617069-5.550086C386.316818 0.497594 652.52955-11.052326 837.471803 133.048951l20.678854-11.932684-1.751148-1.435367c-195.822334-156.933458-481.95796-144.321367-663.254381 37.855412z m30.793407 30.936944C122.171015 290.7288 78.660257 429.337406 93.387122 562.683L306.127649 439.834723C336.834934 333.828086 434.238938 256.356545 549.652013 256.356545c21.138171 0 41.663919 2.602799 61.290171 7.492616l206.396205-119.154599-0.956912-0.727252C638.17588 11.32983 385.455598 26.171525 223.928966 188.482825z m325.732616 78.619835c-106.552077 0-197.066319 68.926323-229.811825 164.818407l277.35118-160.14868a242.940648 242.940648 0 0 0-47.548924-4.669727zM222.340493 339.607831l22.12379 13.396758 26.00885-6.315614-6.851485 23.157254 18.133469 24.085458-27.616461 0.75596-13.262791 22.851042-12.535538-27.319818-24.018474-5.339565 18.334421-19.281763-0.315781-25.989712z m121.604292-197.736157l40.190276 23.358205 48.008241-12.248465-13.368051 41.893578 32.506278 42.687815-50.764146 2.287018-25.14763 41.539521-22.095083-48.706787-43.960506-8.784446 34.343547-35.29089 0.287074-46.735549z m228.988881-4.679297l22.12379 13.396759 26.00885-6.315615-6.851485 23.157254 18.133469 24.085458-27.616461 0.75596-13.262791 22.851043-12.535538-27.319818-24.018474-5.339566 18.334421-19.281763-0.315781-25.989712z m-196.166823 531.516398l-41.147187-71.289894 50.745008-29.300625 40.831406 70.725317 16.669396-9.616959-50.07517-86.734443-33.893799 19.568837-28.152332-48.764202-15.932573 9.195918 28.152331 48.764201-33.338791 19.253056 50.40052 87.289452 15.741191-9.090658z m-129.910282-25.262459c3.167377-10.755683 4.42093-23.138116 4.688866-35.951158l44.257149-25.549533-8.803584-15.262736-36.123403 20.851098c-0.382765-6.229493-1.358814-12.62166-2.296587-18.525803l-17.693291 4.009458c4.219979 20.142983 3.464019 41.922285-1.416229 59.13712 4.928093 2.114774 14.238841 8.401681 17.387079 11.291554z m74.773052-64.256596l9.435145-14.879971c-8.277283-6.631396-23.128547-15.674208-36.018142-20.889374l-9.234195 13.521157c12.813043 5.50224 27.989656 15.10963 35.817192 22.248188z m55.060677-32.534985c1.090879-11.789148 1.215277-28.248022 0.861221-43.424636l-18.018641 3.444881c2.287018 12.08579 2.746336 30.42978 2.239173 42.391172l14.918247-2.411417zM330.452335 741.60628c1.40666-5.272581 4.841971-11.722164 27.693014-49.989048-3.224791-2.602799-8.468665-8.258145-11.712595-12.592953l-15.119199 23.865369-20.095138-34.802865 23.894076-13.789092-8.918413-15.454118-23.894076 13.798661-12.784336-22.152497 22.047237-12.726921-9.033243-15.626362-52.783229 30.477626 9.023674 15.626362 15.186183-8.765308 12.793905 22.152497-23.348637 13.473312 8.927983 15.444549 23.339067-13.473312 17.721998 30.716854c6.028541 10.411195 3.186515 23.463466 0.86122 29.281487 4.248686 0.516732 12.63123 2.631506 16.200509 4.535759z m45.022678-24.257702c38.295591-44.438962 30.047016-75.414182 16.72681-98.494883l-18.162177-31.453675-16.487582 9.521267 18.162177 31.453676c9.999723 17.310526 18.104762 42.898335-18.401405 82.332651 5.837159 1.110017 13.970905 4.09558 18.162177 6.640964z m89.164998-51.730626l3.837214-18.592787c-14.009182-1.588473-39.252503-0.411472-57.280712 1.310968l-4.325239 16.889485c18.717186-1.377952 44.324133-1.51192 57.768737 0.392334z m-0.880359-143.661098l-15.157475-26.248078 120.207201-69.39521 15.157476 26.238509 17.58803-10.162398-24.602191-42.620831-64.830742 37.434371c-5.875436-5.042923-15.186183-11.339399-23.051994-15.980419l-14.13358 14.870402c5.597931 3.712816 12.219758 8.325129 17.186127 12.659937l-69.82582 40.314674 24.602191 42.620831 16.860777-9.731788z m51.15648 115.135571c5.684053-16.678964 6.755794-34.927264 3.731954-54.266442 33.951214 19.85591 63.979091 10.707838 100.47569-10.363349l44.257149-25.549533c-2.26788-5.645777-4.21041-15.43498-3.798938-21.138171a5348.435786 5348.435786 0 0 1-49.529731 28.850877c-9.454284 5.454395-18.56408 10.210244-27.559046 13.425466l-18.812877-32.563693 52.974612-30.592455-9.349024-16.19094-52.974611 30.582886-15.578517-26.984899 43.71171-25.233752-9.454284-16.382322-104.284197 60.208861 9.463853 16.372753 42.773937-24.697882 40.955804 70.90713c-16.305769 1.72244-32.37231-2.15305-49.137396-15.798606-2.344433-8.325129-5.664915-17.080867-9.28204-25.913159l-18.487527 8.191161c15.21489 34.898556 20.812821 66.409646 9.435146 93.327562 5.387411 0.354057 16.047403 2.143481 20.477902 3.808507z m277.083245-160.962055l-34.161735-59.194535 48.151778-27.798274 5.798883 10.047569 17.970795-10.372919-51.367001-88.964046-66.122572 38.180762-18.698048-32.391448-17.970795 10.372918 18.698048 32.391449-65.194369 37.635323 51.90287 89.901819 17.224404-9.951878-6.344322-10.975773 47.979534-27.702583 34.161735 59.194535 17.970795-10.372919z m4.210409-103.930139l-48.161347 27.807843-25.999281-45.041816 48.151778-27.807844 26.00885 45.041817z m-66.122572 38.180762l-47.969965 27.693014-26.00885-45.041817 47.969965-27.693014 26.00885 45.041817z" fill="#E5E5E5" p-id="2466"></path></svg>