<svg t="1651044445189" class="icon" viewBox="0 0 1024 1024" version="1.1" xmlns="http://www.w3.org/2000/svg" p-id="25524" width="200" height="200"><path d="M762.3 382c6-6.4 8.9-14.8 8.3-23.6-1.2-16.4-15-29.2-31.5-29.2h-452c-9.1 0-17.8 3.8-23.9 10.3-6 6.4-8.9 14.8-8.3 23.6 1.2 16.4 15 29.2 31.5 29.2h452.1c9 0 17.7-3.8 23.8-10.3zM661.7 532.9c6-6.4 8.9-14.8 8.3-23.6-1.2-16.4-15-29.2-31.5-29.2H387.7c-9.1 0-17.8 3.8-23.9 10.3-6 6.4-8.9 14.8-8.3 23.6 1.2 16.4 15 29.2 31.5 29.2h250.8c9.1 0 17.8-3.7 23.9-10.3z" p-id="25525" fill="#515151"></path><path d="M839.7 128H185.8c-45.3 0-82 36.7-82 82v502.9c0 45.3 36.7 82 82 82h223.3l99 99c1.3 1.3 2.9 1.9 4.6 1.9s3.3-0.6 4.6-1.9l99-99h223.3c45.3 0 82-36.7 82-82v-503c0-45.3-36.7-81.9-81.9-81.9zM441.5 733.6l-1.9-1.9H211c-24.3 0-44-19.7-44-44V235.1c0-24.3 19.7-44 44-44h603.5c24.3 0 44 19.7 44 44v452.6c0 24.3-19.7 44-44 44H585.8l-73.1 73.1-71.2-71.2z" p-id="25526" fill="#515151"></path></svg>