<?xml version="1.0" encoding="utf-8"?>
<!-- Generator: Adobe Illustrator 24.1.2, SVG Export Plug-In . SVG Version: 6.00 Build 0)  -->
<svg version="1.1" id="图层_1" xmlns="http://www.w3.org/2000/svg" xmlns:xlink="http://www.w3.org/1999/xlink" x="0px" y="0px"
	 viewBox="0 0 1855.5 890.67" style="enable-background:new 0 0 1855.5 890.67;" xml:space="preserve">
<style type="text/css">
	.st0{fill:#FED7A1;}
	/* .st1{fill:#FEFEFE;} */
</style>
<g>
	<path class="st0" d="M589.67,419.8c21.96,0,43.1,0,64.24,0c15.99,0,31.98,0.15,47.97-0.11c3.96-0.07,5.9,1.5,7.82,4.63
		c10.32,16.87,20.83,33.62,31.3,50.4c0.6,0.96,1.35,1.83,2.55,3.44c3.38-6.7,6.53-12.83,9.57-19.01
		c7.11-14.48,14.17-28.98,21.25-43.48c5.1-10.46,10.06-21,15.36-31.36c1.92-3.75,0.93-4.35-2.82-4.34
		c-75.28,0.07-150.56,0.1-225.84-0.05c-5.02-0.01-4.65,2.6-4.65,5.93c0.03,146.98,0.03,293.95,0.03,440.93
		c0,1.33-0.17,2.69,0.03,3.99c0.65,4.33-0.92,5.66-5.43,5.62c-26.48-0.22-52.96-0.2-79.44-0.01c-4.27,0.03-5.23-1.35-5.23-5.39
		c0.09-244.52,0.09-489.03-0.03-733.55c0-4.72,1.72-5.35,5.8-5.35c93.94,0.1,187.87,0.11,281.81,0.03
		c14.47-0.01,28.69-2.86,42.92-5.08c23.75-3.71,47.44-7.97,70.53-14.81c13.37-3.96,26.89-7.74,38.75-15.48
		c3.28-2.14,3.12-0.2,3.12,2.08c-0.01,11.82,0,23.64,0,35.45c0,26.97-0.12,53.93,0.11,80.89c0.04,4.75-1.1,6.11-6.01,6.11
		c-113.26-0.15-226.51-0.12-339.77-0.1c-8.07,0-7.15-0.87-7.16,7.23c-0.03,32.46,0.06,64.92-0.1,97.37c-0.02,4.07,1,5.36,5.23,5.35
		c66.12-0.13,132.24,0.18,198.36-0.32c12.99-0.1,26-2.92,38.92-4.95c22.28-3.48,44.43-7.72,66.18-13.79
		c15.17-4.24,30.21-8.87,44.27-17.8c0,2.32,0,3.93,0,5.54c0,38.45-0.03,76.9,0.05,115.35c0.01,3.27-0.7,6.15-2.13,9.06
		c-17.79,36.11-35.52,72.24-53.24,108.38c-14.35,29.27-28.59,58.59-43.09,87.79c-1.56,3.14-0.8,5.27,0.74,7.73
		c14.53,23.25,29.05,46.51,43.56,69.78c17.41,27.92,34.84,55.82,52.16,83.79c2.01,3.25,4.14,4.96,8.3,4.78
		c8.81-0.38,17.66-0.35,26.47-0.02c4.33,0.16,5.2-1.4,5.19-5.41c-0.11-64.75-0.09-129.5-0.07-194.25c0-7.77-0.86-7,6.88-7
		c38.47-0.02,76.95-0.09,115.42,0.1c4.7,0.02,5.92-1.37,5.76-5.88c-0.33-8.98-0.31-17.98,0-26.96c0.15-4.25-1.3-5.27-5.37-5.25
		c-38.81,0.14-77.61-0.01-116.42,0.2c-4.95,0.03-6.41-1.08-6.4-6.27c0.17-95.04,0.13-190.09,0.13-285.13c0-1.49,0-2.98,0-5.15
		c5.91,2.73,11.29,5.51,16.9,7.74c22.15,8.82,45.3,14.09,68.6,18.63c4.65,0.91,4.51,3.2,4.51,6.52
		c-0.03,55.59-0.02,111.19-0.02,166.78c0,6.76,0,6.76,6.64,6.76c8.83,0,17.67-0.28,26.48,0.11c4.72,0.21,4.93-2.01,4.92-5.66
		c-0.08-53.43-0.06-106.86-0.06-160.29c0-1.33,0.03-2.66,0-3.99c-0.04-2.07,0.54-3.02,2.96-2.5c14.26,3.05,28.74,2.57,43.19,2.57
		c165.39-0.02,330.77-0.01,496.16-0.02c14.84,0,29.35-3.03,43.91-5.26c22.13-3.38,44.12-7.6,65.71-13.63
		c15.21-4.25,30.34-8.71,43.84-17.37c1.47,1.02,0.8,2.47,0.81,3.65c0.04,38.78-0.03,77.57,0.12,116.35c0.02,4.18-1.21,5.3-5.34,5.29
		c-38.97-0.15-77.95-0.02-116.92-0.18c-4.4-0.02-5.94,0.9-5.93,5.69c0.17,68.91,0.15,137.82,0.03,206.73
		c-0.01,4.65,1.07,6.54,6.07,6.33c8.98-0.37,17.99-0.29,26.97-0.02c3.96,0.12,5.08-1.08,5.06-5.04
		c-0.15-32.79-0.06-65.58-0.13-98.37c-0.01-3.34,0.24-5.07,4.52-5.73c22.7-3.47,44.87-9.19,66.19-17.83
		c5.22-2.11,10.56-4.09,15.3-7.25c3.23-2.15,4.17-1.22,4.13,2.48c-0.13,13.48-0.05,26.96-0.05,40.45c0,58.26,0,116.52,0,174.77
		c0,6.37-0.01,6.37-6.58,6.37c-38.64,0-77.28,0.07-115.92-0.1c-4.38-0.02-5.61,1.1-5.59,5.54c0.19,31.79,0.21,63.58,0,95.38
		c-0.03,4.99,1.68,6.1,6.33,6.08c38.64-0.16,77.28-0.02,115.92-0.18c4.41-0.02,6,0.92,5.96,5.72c-0.24,26.46-0.19,52.93-0.03,79.4
		c0.02,3.92-1.05,5.07-5.04,5.06c-69.29-0.12-138.57-0.14-207.86,0.04c-4.87,0.01-5.23-1.92-5.22-5.85
		c0.08-136.99,0.07-273.98,0.06-410.97c0-27.8-0.08-55.6,0.09-83.39c0.03-4.12-1.08-5.32-5.27-5.32
		c-125.91,0.11-251.83,0.12-377.74-0.03c-5.39-0.01-5.78,2.33-5.78,6.6c0.07,163.28,0.06,326.56,0.06,489.84
		c0,1.33-0.15,2.68,0.03,3.99c0.52,3.89-0.94,5.11-4.96,5.09c-26.65-0.17-53.3-0.19-79.94,0.01c-4.28,0.03-5.21-1.35-5.2-5.38
		c0.12-64.92,0.08-129.83,0.08-194.75c0-6.59,0-6.59-6.35-6.59c-8.66,0-17.33,0.27-25.98-0.11c-4.94-0.22-5.74,1.84-5.73,6.16
		c0.12,53.43,0.08,106.86,0.08,160.29c0,11.82-0.12,23.64,0.07,35.45c0.06,3.58-0.76,4.91-4.66,4.91
		c-59.96-0.12-119.92-0.11-179.88-0.01c-2.89,0-4.58-0.98-6.03-3.32c-28.79-46.28-57.63-92.53-86.47-138.78
		c-0.76-1.22-1.02-3.28-2.67-3.3c-1.74-0.02-1.91,2.07-2.53,3.34c-16.89,34.33-33.74,68.67-50.58,103.01
		c-5.71,11.65-11.46,23.28-16.98,35.01c-1.41,3-3.18,4.04-6.5,4.03c-35.97-0.12-71.95-0.12-107.93-0.01
		c-4.11,0.01-4.91-0.66-2.94-4.6c11.38-22.76,22.56-45.63,33.78-68.47c16.79-34.19,33.59-68.37,50.34-102.58
		c11.85-24.2,23.55-48.46,35.49-72.61c1.43-2.89,1.42-4.91-0.32-7.67c-18.91-30.12-37.67-60.33-56.48-90.51
		c-13.98-22.42-27.98-44.82-41.96-67.25C590.57,422.03,590.32,421.26,589.67,419.8z"/>
	<path class="st0" d="M83.91,445.29c0-127.83,0-255.65,0-383.48c0-7.4,0.01-7.41,6.79-3.96c24.09,12.24,49.86,19.04,76.35,23.42
		c7.58,1.25,7.62,1.02,7.62,8.67c0,65.41,0.05,130.82-0.11,196.23c-0.01,4.83,1.31,6.08,6.1,6.06c43.47-0.22,86.93-0.13,130.4-0.27
		c7.96-0.02,15.92-0.71,23.89-0.98c2.79-0.09,3.89-1.38,3.73-4.06c-0.08-1.33-0.01-2.66-0.01-3.99c0-70.9,0-141.81,0-212.71
		c0-6.35,0.04-6.43,5.56-3.56c25.36,13.18,52.69,19.94,80.66,24.46c3.76,0.61,4.61,1.95,4.6,5.37
		c-0.06,93.54-0.09,187.08,0.06,280.62c0.01,4.77-2.16,4.85-5.73,4.85c-80.61-0.06-161.21-0.06-241.82-0.04
		c-8.33,0-7.27-0.98-7.32,7.56c-0.05,8.49,0.21,16.99-0.11,25.46c-0.16,4.13,1.36,4.96,5.15,4.95c31.98-0.13,63.95-0.07,95.93-0.07
		c49.3,0,98.59,0.07,147.89-0.11c4.9-0.02,6.01,1.43,6,6.15c-0.13,134.65-0.12,269.3-0.01,403.95c0,4.87-1.06,6.65-6.32,6.6
		c-26.31-0.26-52.63-0.25-78.94,0c-4.79,0.05-5.7-1.53-5.69-5.93c0.11-105.52,0.09-211.05,0.08-316.57c0-7.99,0.81-7.09-7.31-7.09
		c-49.96-0.02-99.93-0.01-149.89-0.01c-6.79,0-6.8,0-6.8,6.63c0,105.52-0.03,211.05,0.11,316.57c0.01,4.91-0.99,6.48-6.24,6.42
		c-25.81-0.3-51.63-0.14-77.44-0.14c-7.2,0-7.2,0-7.2-7.5C83.91,700.94,83.91,573.12,83.91,445.29z"/>
	<path class="st0" d="M947.24,55.22c30.12,15.63,62.51,21.89,94.92,28.19c15.62,3.03,31.39,5.12,47.08,7.67
		c1.96,0.32,3.98,0.28,5.98,0.29c21.65,0.02,43.3-0.08,64.95,0.1c3.93,0.03,5.2-1.05,5.08-5.05c-0.28-8.81,0.21-17.65-0.21-26.45
		c-0.23-4.83,1.55-5.7,5.94-5.69c38.63,0.15,77.27,0.21,115.9-0.05c5.34-0.04,6.39,1.64,6.19,6.48c-0.37,8.81,0.01,17.64-0.16,26.46
		c-0.07,3.27,1.03,4.29,4.29,4.28c41.8-0.09,83.6-0.1,125.4,0.02c3.75,0.01,4.4-1.49,4.35-4.73c-0.16-9.32,0.09-18.64-0.13-27.96
		c-0.09-3.59,1.2-4.47,4.61-4.46c39.3,0.1,78.6,0.12,117.9-0.02c3.91-0.01,4.74,1.35,4.66,4.93c-0.22,9.32,0.04,18.64-0.13,27.96
		c-0.06,3.28,1.04,4.29,4.3,4.27c22.98-0.13,45.99,0.63,68.93-0.38c14.66-0.64,29.27-3.46,43.8-5.93c24.53-4.16,48.95-9,72.6-16.96
		c8.82-2.97,17.57-6.21,25.43-11.37c2.59-1.7,3.73-1.5,3.72,1.97c-0.06,39.61-0.05,79.22-0.01,118.83c0,2.49-0.73,3.8-3.41,3.55
		c-1.16-0.11-2.33-0.01-3.5-0.01c-270.45,0-540.89,0-811.34-0.01c-8.08,0-7.11,0.91-7.12-7.24c-0.03-37.78-0.01-75.56-0.01-113.34
		C947.24,58.79,947.24,57.03,947.24,55.22z"/>
	<path class="st0" d="M1203.34,371.28c12.61,9.7,27.15,11.65,41.6,13.59c28.16,3.79,56.49,1.88,84.74,2.05
		c41.97,0.26,83.95,0.24,125.91-0.17c13.56-0.13,27.16-1.6,40.41-4.92c7.04-1.76,14.11-3.68,19.92-9.71c0,2.48,0,4.12,0,5.75
		c0,129.34,0,258.67,0,388.01c0,6.52,0,6.52-6.38,6.52c-12.16,0-24.32,0.1-36.48-0.06c-3.26-0.04-4.43,0.96-4.28,4.26
		c0.23,5.15-0.17,10.33,0.13,15.47c0.23,3.98-0.79,5.5-5.15,5.45c-22.32-0.22-44.64-0.17-66.95-0.03c-3.62,0.02-5.11-0.82-4.89-4.7
		c0.31-5.48,0-10.98,0.11-16.47c0.05-2.57-0.45-3.99-3.52-3.97c-19.32,0.1-38.64,0.1-57.96,0c-3.03-0.02-3.61,1.34-3.55,3.94
		c0.12,5.66-0.06,11.32,0.08,16.98c0.07,2.82-0.56,4.22-3.82,4.21c-22.82-0.11-45.64-0.11-68.45,0c-3.22,0.02-3.94-1.3-3.86-4.17
		c0.15-5.49-0.15-10.99,0.11-16.47c0.17-3.53-1.07-4.55-4.54-4.51c-12.99,0.17-25.98-0.04-38.97,0.14
		c-3.56,0.05-4.48-1.13-4.48-4.57c0.07-131.5,0.06-263,0.07-394.5C1203.14,372.92,1203.23,372.43,1203.34,371.28z"/>
	<path class="st1" d="M1272.08,579.1c0-38.6,0.06-77.2-0.09-115.79c-0.02-4.25,0.88-5.68,5.46-5.67
		c54.77,0.17,109.54,0.15,164.3,0.02c4.14-0.01,5.31,1.13,5.31,5.29c-0.12,77.86-0.12,155.72,0.01,233.58
		c0.01,4.35-1.5,5.17-5.46,5.16c-54.77-0.11-109.54-0.12-164.3,0.01c-4.16,0.01-5.32-1.17-5.31-5.31
		C1272.14,657.29,1272.08,618.19,1272.08,579.1z"/>
	<path class="st0" d="M1339.99,644.22c0-8.66-0.18-17.32,0.08-25.96c0.11-3.58-1.24-5.07-4.44-6.55
		c-20.76-9.63-34.11-25.63-37.26-48.38c-3.53-25.51,6.73-48.21,29.02-61.64c31.16-18.77,69.67-8.44,87.1,23.69
		c12.96,23.89,8.77,51.62-9.45,71.72c-6.15,6.78-13.43,11.98-21.94,15.21c-3.19,1.21-3.27,3.17-3.27,5.77
		c0.03,17.31-0.11,34.62,0.11,51.93c0.06,4.25-0.86,5.85-5.47,5.69c-9.98-0.36-19.99-0.23-29.97-0.04
		c-3.42,0.06-4.68-0.89-4.59-4.46C1340.14,662.2,1339.99,653.21,1339.99,644.22z"/>
	<path class="st1" d="M1359.37,576.7c-10.11,0.53-22.58-8.27-22.05-22.72c0.49-13.36,8.87-21.55,22.42-21.9
		c12.88-0.33,22.33,10.08,22.28,22.51C1381.95,566.98,1371.98,576.75,1359.37,576.7z"/>
</g>
</svg>
