<svg t="1662707059288" class="icon" viewBox="0 0 1024 1024" version="1.1" xmlns="http://www.w3.org/2000/svg" p-id="2940" width="200" height="200"><path d="M192.570877 222.853577l-65.491597 0 0-89.721441c0-38.73214 31.510668-70.242807 70.242807-70.242807l627.551736 0.001023c38.731116 0 70.241784 31.509644 70.241784 70.241784l0 89.721441-65.491597 0" p-id="2941" fill="#00B7B6"></path><path d="M856.907401 544.574906c-24.569582 0-48.238654-5.411243-69.029166-15.72003-20.792559 10.307763-44.462654 15.72003-69.03019 15.72003-24.568559 0-48.239677-5.412266-69.029166-15.72003-20.791535 10.308787-44.460608 15.72003-69.03019 15.72003-24.568559 0-48.235584-5.411243-69.029166-15.72003-20.792559 10.307763-44.461631 15.72003-69.03019 15.72003-24.570605 0-48.239677-5.412266-69.03019-15.72003-20.792559 10.308787-44.460608 15.72003-69.029166 15.72003-24.568559 0-48.238654-5.412266-69.029166-15.72003-20.792559 10.308787-44.460608 15.72003-69.029166 15.72003-13.881149 0-27.544333-1.777483-40.555671-5.161556l0 349.692381c0 39.362496 31.341822 71.38584 69.867254 71.38584l182.683692 0c38.525432 0 69.868277-32.023344 69.868277-71.38584L448.475198 727.355813c0-12.635785 10.243295-22.878057 22.878057-22.878057l80.506569 0c12.635785 0 22.87908 10.243295 22.87908 22.87908l0 161.748894c0 39.362496 31.343869 71.38584 69.869301 71.38584l180.63708 0c38.524408 0 69.867254-32.023344 69.867254-71.38584l0-349.111143C882.809327 542.993898 869.956601 544.574906 856.907401 544.574906z" p-id="2942" fill="#00B7B6"></path><path d="M857.147878 512c-22.097274 0-43.122123-5.431709-60.799738-15.70775-2.863211-1.663896-5.608741-3.444449-8.229428-5.331425-2.620687 1.886977-5.367241 3.668553-8.229428 5.331425-17.678638 10.276041-38.703487 15.70775-60.800761 15.70775s-43.122123-5.431709-60.799738-15.70775c-2.863211-1.663896-5.608741-3.444449-8.229428-5.331425-2.620687 1.886977-5.366218 3.667529-8.229428 5.331425-17.677615 10.276041-38.702464 15.70775-60.800761 15.70775-22.097274 0-43.122123-5.431709-60.799738-15.70775-2.862187-1.663896-5.608741-3.444449-8.229428-5.331425-2.620687 1.886977-5.367241 3.667529-8.229428 5.331425-17.678638 10.276041-38.702464 15.70775-60.800761 15.70775-22.097274 0-43.122123-5.431709-60.800761-15.708773-2.862187-1.662873-5.607718-3.443425-8.228405-5.330402-2.620687 1.886977-5.366218 3.667529-8.228405 5.330402-17.678638 10.276041-38.703487 15.708773-60.801784 15.708773-22.097274 0-43.122123-5.431709-60.801784-15.708773-2.862187-1.662873-5.607718-3.443425-8.228405-5.330402-2.620687 1.886977-5.366218 3.667529-8.228405 5.330402-17.678638 10.276041-38.703487 15.708773-60.800761 15.708773-25.813922 0-50.472532-7.534604-69.434395-21.216207-21.868053-15.778358-34.408671-38.678928-34.408671-62.828954L63.008033 313.730331c0-32.332383 26.215058-58.637492 58.437947-58.637492l781.105994 0c32.221866 0 58.436924 26.305109 58.436924 58.637492l0 114.224508c0 24.15105-12.541641 47.050596-34.409694 62.828954C907.619386 504.465396 882.9618 512 857.147878 512z" p-id="2943" fill="#00B7B6"></path></svg>