<svg t="1662707043413" class="icon" viewBox="0 0 1024 1024" version="1.1" xmlns="http://www.w3.org/2000/svg" p-id="2592" width="200" height="200"><path d="M895.113561 290.738687l-65.491597 0 0-99.204419-0.001023-39.891546c0-12.846586-10.414187-23.260773-23.260773-23.260773l-39.72884 0-510.629793-0.001023-40.170908-0.001023c-12.846586 0-23.260773 10.414187-23.260773 23.260773l0 40.405245 0 98.692766-65.491597 0L127.078257 133.131113c0-38.73214 31.510668-70.242807 70.242807-70.242807l627.551736 0.001023c38.731116 0 70.241784 31.509644 70.241784 70.241784L895.114584 290.738687z" p-id="2593" fill="#707070"></path><path d="M825.246307 960.491571 644.609227 960.491571c-38.525432 0-69.869301-32.023344-69.869301-71.38584L574.739926 727.356836c0-12.635785-10.243295-22.87908-22.87908-22.87908l-80.506569 0c-12.635785 0-22.878057 10.243295-22.878057 22.878057l0 161.749918c0 39.362496-31.342846 71.38584-69.868277 71.38584L195.922205 960.491571c-38.524408 0-69.867254-32.023344-69.867254-71.38584L126.054951 478.774271l65.491597 0 0 352.838024 0 40.126906c0 12.846586 10.414187 23.260773 23.260773 23.260773l41.195238 0 63.444984 0 40.276309 0c12.846586 0 23.260773-10.414187 23.260773-23.261797l-0.001023-39.61423L382.983601 708.585307c0-38.438451 31.160697-69.599148 69.599148-69.599148l118.051673 0c38.437427 0 69.597101 31.159674 69.597101 69.597101l0 123.030058 0 40.126906c0 12.846586 10.414187 23.260773 23.260773 23.260773l40.206724 0 62.933331 0 39.72884 0c12.846586 0 23.260773-10.414187 23.260773-23.260773l0.001023-40.126906 0-352.528985 65.491597 0 0 410.023444C895.113561 928.46925 863.771739 960.491571 825.246307 960.491571z" p-id="2594" fill="#707070"></path><path d="M856.907401 511.829108c-22.097274 0-43.122123-5.431709-60.799738-15.70775-2.863211-1.663896-5.608741-3.444449-8.229428-5.331425-2.620687 1.886977-5.367241 3.668553-8.229428 5.331425-17.678638 10.276041-38.703487 15.70775-60.800761 15.70775s-43.122123-5.431709-60.799738-15.70775c-2.863211-1.663896-5.608741-3.444449-8.229428-5.331425-2.620687 1.886977-5.366218 3.667529-8.229428 5.331425-17.677615 10.276041-38.702464 15.70775-60.800761 15.70775-22.097274 0-43.122123-5.431709-60.799738-15.70775-2.862187-1.663896-5.608741-3.444449-8.229428-5.331425-2.620687 1.886977-5.367241 3.667529-8.229428 5.331425-17.678638 10.276041-38.702464 15.70775-60.800761 15.70775-22.097274 0-43.122123-5.431709-60.800761-15.708773-2.862187-1.662873-5.607718-3.443425-8.228405-5.330402-2.620687 1.886977-5.366218 3.667529-8.228405 5.330402-17.678638 10.276041-38.703487 15.708773-60.801784 15.708773-22.097274 0-43.122123-5.431709-60.801784-15.708773-2.862187-1.662873-5.607718-3.443425-8.228405-5.330402-2.620687 1.886977-5.366218 3.667529-8.228405 5.330402-17.678638 10.276041-38.703487 15.708773-60.800761 15.708773-25.813922 0-50.472532-7.534604-69.434395-21.216207-21.868053-15.778358-34.408671-38.678928-34.408671-62.828954L62.767556 313.559439c0-32.332383 26.215058-58.637492 58.437947-58.637492l781.105994 0c32.221866 0 58.436924 26.305109 58.436924 58.637492l0 114.224508c0 24.15105-12.541641 47.050596-34.409694 62.828954C907.378909 504.294504 882.7203 511.829108 856.907401 511.829108zM787.877211 406.823566c14.160511 0 26.715455 9.101285 31.121811 22.557762 2.325975 7.108908 16.795525 16.956184 37.908378 16.956184 23.790846 0 38.35147-12.012591 38.35147-18.553565L895.25887 320.413544l-766.998695 0 0 107.36938c0 6.540973 14.560624 18.553565 38.35147 18.553565 21.112853 0 35.58138-9.847276 37.907355-16.95516 4.40431-13.456477 16.962324-22.559808 31.121811-22.559808 0 0 0 0 0 0 14.160511 0 26.716478 9.102309 31.120788 22.559808 2.325975 7.107885 16.794501 16.954137 37.907355 16.954137 21.113877 0 35.582403-9.847276 37.908378-16.95516 4.405333-13.4575 16.9613-22.559808 31.121811-22.559808s26.716478 9.102309 31.121811 22.559808c2.325975 7.107885 16.794501 16.95516 37.907355 16.95516 21.113877 0 35.582403-9.847276 37.909401-16.956184 4.405333-13.456477 16.9613-22.557762 31.120788-22.557762s26.714432 9.101285 31.120788 22.557762c2.325975 7.108908 16.795525 16.956184 37.908378 16.956184 21.113877 0 35.582403-9.847276 37.909401-16.954137 4.405333-13.4575 16.960277-22.558785 31.119765-22.558785 14.160511 0 26.715455 9.101285 31.121811 22.557762 2.326998 7.108908 16.795525 16.956184 37.908378 16.956184 21.113877 0 35.582403-9.847276 37.909401-16.954137C761.161756 415.925874 773.717723 406.824589 787.877211 406.823566z" p-id="2595" fill="#707070"></path></svg>