<svg t="1666145684709" class="icon" viewBox="0 0 1024 1024" version="1.1" xmlns="http://www.w3.org/2000/svg" p-id="3484" width="200" height="200"><path d="M480 480H272c-114.4 0-208-93.6-208-208S157.6 64 272 64s208 93.6 208 208v208zM544 480h208c114.4 0 208-93.6 208-208S866.4 64 752 64s-208 93.6-208 208v208zM544 544h208c114.4 0 208 93.6 208 208s-93.6 208-208 208-208-93.6-208-208V544zM480 544H272c-114.4 0-208 93.6-208 208s93.6 208 208 208 208-93.6 208-208V544z" fill="#C0C4CC" p-id="3485"></path></svg>