<svg t="1659806701410" class="icon" viewBox="0 0 1024 1024" version="1.1" xmlns="http://www.w3.org/2000/svg" p-id="28946" width="200" height="200"><path d="M512 1024a512 512 0 1 1 512-512 512.568889 512.568889 0 0 1-512 512z m0-946.915556A434.915556 434.915556 0 1 0 946.915556 512 435.427556 435.427556 0 0 0 512 77.084444z" fill="#467CFD" p-id="28947"></path><path d="M261.688889 512m-71.111111 0a71.111111 71.111111 0 1 0 142.222222 0 71.111111 71.111111 0 1 0-142.222222 0Z" fill="#8BAEF7" p-id="28948"></path><path d="M512 512m-71.111111 0a71.111111 71.111111 0 1 0 142.222222 0 71.111111 71.111111 0 1 0-142.222222 0Z" fill="#8BAEF7" p-id="28949"></path><path d="M762.311111 512m-71.111111 0a71.111111 71.111111 0 1 0 142.222222 0 71.111111 71.111111 0 1 0-142.222222 0Z" fill="#8BAEF7" p-id="28950"></path></svg>