<svg xmlns="http://www.w3.org/2000/svg" fill="none" viewBox="0 0 1024 1024" height="1024" width="1024">
<path fill="#F0FFFD" d="M151.772 776.769C179.625 844.736 225.04 858.884 256.97 844.736C318.721 817.377 479.129 786.807 643.874 858.663C862.07 953.833 908.494 810.246 838.858 665.004C769.221 519.762 745.617 372.883 825.895 291.961C906.173 211.039 801.121 84.4475 614.56 216.22C493.997 301.377 405.518 282.415 358.005 258.342C313.226 235.653 263.425 211.934 216.767 230.454C160.153 252.927 137.845 301.65 223.981 410.498C346.044 564.744 89.3366 624.421 151.772 776.769Z"></path>
<path fill="#8AD1C8" d="M265.18 445.676H698.654V779.044C698.654 779.722 698.385 780.374 697.905 780.854C697.424 781.334 696.773 781.604 696.094 781.604H267.74C267.061 781.604 266.41 781.334 265.929 780.854C265.449 780.374 265.18 779.722 265.18 779.044V445.676Z"></path>
<path fill="#0D6E61" d="M589.91 315.037H388.353L265.18 445.675H698.654L589.91 315.037Z"></path>
<path fill="#3DA193" d="M306.237 262.781L388.353 315.037L265.18 445.675L171.866 374.757L306.237 262.781Z"></path>
<path fill="#3DA193" d="M672.025 262.781L589.909 315.037L698.654 445.675L806.396 374.757L672.025 262.781Z"></path>
<path fill="#3DA193" d="M441.307 265.453C443.624 264.355 445.427 262.403 446.339 260.006C447.25 257.609 447.201 254.952 446.199 252.591L409.259 165.486C408.736 164.252 407.969 163.137 407.003 162.207C406.038 161.277 404.895 160.553 403.642 160.076C402.39 159.6 401.054 159.381 399.714 159.435C398.375 159.488 397.061 159.811 395.85 160.385L388.733 163.76C387.522 164.334 386.44 165.147 385.551 166.15C384.663 167.153 383.986 168.326 383.562 169.597C383.138 170.869 382.976 172.213 383.085 173.548C383.193 174.884 383.571 176.184 384.195 177.37L428.252 261.1C429.446 263.37 431.471 265.09 433.904 265.901C436.337 266.713 438.989 266.552 441.307 265.453Z"></path>
<path fill="#3DA193" d="M487.62 257.009C489.297 256.889 490.863 256.126 491.991 254.879C493.118 253.632 493.721 251.998 493.672 250.317L491.847 188.306C491.821 187.427 491.618 186.563 491.25 185.766C490.881 184.968 490.356 184.253 489.704 183.663C489.052 183.074 488.288 182.622 487.457 182.336C486.626 182.049 485.746 181.934 484.87 181.996L479.717 182.363C478.841 182.425 477.987 182.664 477.205 183.065C476.424 183.466 475.731 184.021 475.169 184.697C474.608 185.372 474.188 186.154 473.937 186.996C473.685 187.837 473.606 188.721 473.704 189.594L480.681 251.239C480.87 252.91 481.697 254.444 482.99 255.519C484.283 256.594 485.942 257.128 487.62 257.009V257.009Z"></path>
<path fill="#3DA193" d="M523.374 279.932C527.987 282.599 534.462 280.152 538.054 274.383L601.831 171.956C605.641 165.837 604.739 158.379 599.846 155.55L593.026 151.608C588.133 148.779 581.219 151.716 577.817 158.071L520.859 264.44C517.651 270.431 518.76 277.264 523.374 279.932Z"></path>
</svg>
