<svg t="1666145659137" class="icon" viewBox="0 0 1024 1024" version="1.1" xmlns="http://www.w3.org/2000/svg" p-id="2563" width="200" height="200"><path d="M583.68 883.2c-9.216 0-16.896-2.048-26.112-3.584l-5.632-2.048-197.632-117.76c-16.896-3.584-44.544-9.216-57.856-9.216h-3.584l-143.872-16.896c-43.008 0-78.336-37.376-78.336-80.384v-261.12c0-43.008 35.328-78.336 78.336-80.384l162.304-22.528c18.432 0 37.376-3.584 55.808-9.216l184.832-132.608 3.584-2.048c24.064-9.216 52.224-5.632 72.704 9.216 20.48 14.848 33.792 39.424 33.792 65.536v580.608c0 26.112-13.312 50.176-33.792 65.536-10.752 11.264-27.648 16.896-44.544 16.896z m-16.384-73.728c7.168 1.536 12.288 0 17.92-3.584 5.12-3.584 8.704-10.752 8.704-17.92V237.056c0-7.168-3.584-14.336-8.704-19.456-5.12-3.584-12.288-5.12-17.92-3.584L393.728 339.968l-3.584 1.536c-23.04 8.704-47.616 12.288-72.704 12.288l-154.112 21.504c-12.288 0-23.04 10.752-23.04 23.04v246.272c0 12.288 10.752 23.04 23.04 23.04h3.584l136.192 15.872c24.576 0 65.536 10.752 69.12 12.288l3.584 1.536 191.488 112.128z" fill="#2E77ED" p-id="2564"></path><path d="M794.624 791.552c-10.752 0-21.504-6.144-27.648-13.824-8.704-13.824-4.096-31.744 10.752-41.472 66.56-37.376 111.616-130.048 111.616-230.4 0-108.032-51.712-204.8-124.416-236.032-17.408-6.144-23.552-23.552-14.848-39.424 8.704-15.872 25.6-21.504 43.008-13.824 96.768 41.472 160.768 157.696 160.768 289.28 0 121.856-55.808 232.448-141.824 279.552-4.096 4.608-10.752 6.144-17.408 6.144z" fill="#FFBB12" p-id="2565"></path></svg>