<svg t="1666250368190" class="icon" viewBox="0 0 1024 1024" version="1.1" xmlns="http://www.w3.org/2000/svg" p-id="4166" width="200" height="200"><path d="M238.848 921.728a68.010667 68.010667 0 0 1-68.266667-68.266667V489.386667a68.010667 68.010667 0 0 1 68.266667-68.266667h64.426667V311.125333a214.314667 214.314667 0 0 1 428.501333 0V421.12h52.992a68.010667 68.010667 0 0 1 68.266667 68.266667v364.074666a68.010667 68.010667 0 0 1-68.266667 68.266667z m-3.925333-432.426667v364.074667c0 3.754667 0 3.754667 3.925333 3.754667h545.92c4.010667 0 4.010667 0 4.010667-3.754667v-364.074667c0-3.754667 0-3.754667-4.010667-3.754666H238.848c-3.712 0-3.712 0-3.712 3.754666z m128.981333-178.346666v109.994666h303.402667V310.954667a151.722667 151.722667 0 1 0-303.402667 0z m125.098667 470.4a8.234667 8.234667 0 0 1-7.68-7.68v-87.338667a67.84 67.84 0 1 1 91.008-30.336c-7.594667 15.317333-15.018667 26.666667-30.336 30.336v87.338667a8.021333 8.021333 0 0 1-7.594667 7.68z" p-id="4167" fill="#cdcdcd"></path></svg>
