<svg t="1666146512640" class="icon" viewBox="0 0 1024 1024" version="1.1" xmlns="http://www.w3.org/2000/svg" p-id="3709" width="200" height="200"><path d="M772.23936 571.392h-33.28a27.97056 27.97056 0 1 1 0-55.936h33.28a113.408 113.408 0 0 0 113.59744-112.96256V246.14912a24.98048 24.98048 0 0 0-25.02144-24.8832h-84.34688a27.96544 27.96544 0 1 1 0-55.93088h84.34688A81.13664 81.13664 0 0 1 942.08 246.14912v156.31872a169.56416 169.56416 0 0 1-169.84064 168.92416z m-476.97408 0h-33.28A169.56416 169.56416 0 0 1 92.16 402.46784V246.14912a81.13664 81.13664 0 0 1 81.26464-80.81408h84.34688a27.96544 27.96544 0 1 1 0 55.93088H173.42464a24.98048 24.98048 0 0 0-25.02144 24.8832v156.31872a113.408 113.408 0 0 0 113.59744 112.96256h33.28a27.97056 27.97056 0 1 1-0.01536 55.9616z" fill="#FD9A16" p-id="3710"></path><path d="M785.81248 414.56128v-297.0112A45.98784 45.98784 0 0 0 739.79904 71.68H294.4a45.98784 45.98784 0 0 0-46.01344 45.85984v297.0112a268.09856 268.09856 0 0 0 152.6528 241.53088v96.45568a134.73792 134.73792 0 0 0-128.59904 134.1696v19.74272A45.98784 45.98784 0 0 0 318.464 952.32h403.03616a45.98784 45.98784 0 0 0 46.00832-45.86496v-19.74272a134.8608 134.8608 0 0 0-134.92224-134.48704h-5.69344V658.944a268.11904 268.11904 0 0 0 158.91968-244.38272z m-480.94208 0V127.96928h424.48384v286.592a212.24448 212.24448 0 0 1-424.48384 0z m406.18496 472.14592v9.33376H328.91904v-9.33376a78.42816 78.42816 0 0 1 78.464-78.208h225.20832a78.42816 78.42816 0 0 1 78.464 78.208z m-140.6208-134.48704H457.51808v-76.54912a268.74368 268.74368 0 0 0 112.91648 1.408v75.14112z" fill="#0066ed" p-id="3711"></path></svg>