<svg t="1659804713972" class="icon" viewBox="0 0 1024 1024" version="1.1" xmlns="http://www.w3.org/2000/svg" p-id="1121" width="200" height="200"><path d="M667.904 487.424c-14.08 0-25.6-11.52-25.6-25.6v-126.72c0-14.08 11.52-25.6 25.6-25.6s25.6 11.52 25.6 25.6v126.72c-0.256 14.08-11.52 25.6-25.6 25.6z" fill="#005CFF" p-id="1122"></path><path d="M850.176 389.376c0-45.056-30.72-82.688-72.448-94.208v-8.448c0-53.76-43.776-97.792-97.792-97.792H335.872c-53.76 0-97.792 43.776-97.792 97.792v8.704c-41.472 11.264-72.448 49.152-72.448 94.208 0 45.568 31.488 83.712 73.728 94.464 11.776 127.488 112.896 229.632 239.872 243.2v77.056h-40.704c-14.08 0-25.6 11.52-25.6 25.6s11.52 25.6 25.6 25.6h126.72c14.08 0 25.6-11.52 25.6-25.6s-11.52-25.6-25.6-25.6h-34.816v-76.544c130.048-10.752 233.984-113.92 246.016-243.456 42.24-11.264 73.728-49.408 73.728-94.976z m-633.344 0c0-16.384 8.448-30.72 21.248-39.168v78.336c-12.8-8.448-21.248-22.784-21.248-39.168z m291.072 288c-120.576 0-218.624-98.048-218.624-218.624V286.72c0-25.6 20.992-46.592 46.592-46.592h344.32c25.6 0 46.592 20.992 46.592 46.592v172.032c0 120.576-98.304 218.624-218.88 218.624z m269.824-248.832v-78.336c12.8 8.448 21.248 22.784 21.248 39.168s-8.448 30.72-21.248 39.168z" fill="#1B1F28" p-id="1123"></path></svg>