<svg t="1663599209478" class="icon" viewBox="0 0 1024 1024" version="1.1" xmlns="http://www.w3.org/2000/svg" p-id="4240" width="200" height="200"><path d="M925.1 928.7H96.3V98.2h828.8v830.5zM140 885h741.3V141.9H140V885z m0 0" p-id="4241"></path><path d="M761.6 534.5H258.9c-12.2 0-21.8-9.6-21.8-21.9 0-12.2 9.6-21.9 21.8-21.9h502.7c12.2 0 21.9 9.6 21.9 21.9-0.1 12.2-9.7 21.9-21.9 21.9z m0 0" p-id="4242"></path><path d="M510.7 776.6c-12.2 0-21.9-9.6-21.9-21.9V271.3c0-12.2 9.6-21.9 21.9-21.9 12.2 0 21.9 9.6 21.9 21.9v483.4c-0.1 11.4-9.7 21.9-21.9 21.9z m0 0" p-id="4243"></path></svg>