<svg t="1666250924063" class="icon" viewBox="0 0 1024 1024" version="1.1" xmlns="http://www.w3.org/2000/svg" p-id="4120" width="200" height="200"><path d="M538.624 726.912a188.074667 188.074667 0 0 1 187.733333-187.733333 188.074667 188.074667 0 0 1 187.733334 187.733333 188.245333 188.245333 0 0 1-187.733334 187.989333 188.245333 188.245333 0 0 1-187.733333-187.989333z m64 0a123.946667 123.946667 0 0 0 123.733333 123.733333 124.117333 124.117333 0 0 0 124.032-123.733333 124.202667 124.202667 0 0 0-124.032-123.989333 124.032 124.032 0 0 0-123.648 123.989333zM175.36 891.989333a65.749333 65.749333 0 0 1-65.92-63.317333v-3.328L152.832 173.696a66.56 66.56 0 0 1 65.92-64.682667h505.088a67.285333 67.285333 0 0 1 65.749333 62.336 11.008 11.008 0 0 1 0 2.346667v3.498667l21.802667 303.573333a31.914667 31.914667 0 0 1-29.866667 34.133333 31.530667 31.530667 0 0 1-34.133333-29.568l-21.973333-307.413333a8.192 8.192 0 0 0-2.176-4.906667L218.453333 173.269333c-0.725333 0-1.792 1.237333-1.792 2.901334v3.413333L173.44 826.922667a1.877333 1.877333 0 0 0 1.792 1.237333h329.770667a32 32 0 0 1 31.957333 32 31.872 31.872 0 0 1-31.957333 31.914667z m538.581333-118.4a32.042667 32.042667 0 0 1-32.128-31.914666v-99.157334a32.042667 32.042667 0 0 1 32.128-31.914666 32 32 0 0 1 31.957334 31.914666v66.986667h44.117333a32.042667 32.042667 0 0 1 31.957333 32.170667 32 32 0 0 1-31.957333 31.914666z m-416.725333-422.4a48.853333 48.853333 0 0 1-9.984-7.424 48.896 48.896 0 0 1-14.336-34.730666 49.194667 49.194667 0 0 1 49.024-49.152A49.024 49.024 0 0 1 370.773333 308.864a48.725333 48.725333 0 0 1-10.709333 30.336 113.92 113.92 0 0 0 110.933333 89.344 114.218667 114.218667 0 0 0 110.933334-89.344 47.957333 47.957333 0 0 1-10.88-30.165333 49.365333 49.365333 0 0 1 49.194666-49.152 48.085333 48.085333 0 0 1 34.517334 14.336 48.256 48.256 0 0 1 14.506666 34.816 49.365333 49.365333 0 0 1-24.32 42.154666 178.176 178.176 0 0 1-174.122666 141.269334 178.048 178.048 0 0 1-173.653334-141.397334z" p-id="4121"></path></svg>
