<svg t="1666250905241" class="icon" viewBox="0 0 1024 1024" version="1.1" xmlns="http://www.w3.org/2000/svg" p-id="3960" width="200" height="200"><path d="M851.712 338.304h-223.872A115.84 115.84 0 1 0 512 222.464a115.797333 115.797333 0 1 0-115.797333 115.84H172.288A67.669333 67.669333 0 0 0 106.666667 403.925333v100.352a58.922667 58.922667 0 0 0 57.898666 65.621334v281.6a67.669333 67.669333 0 0 0 65.664 65.621333h563.584a67.669333 67.669333 0 0 0 65.621334-65.621333v-281.6a61.226667 61.226667 0 0 0 57.898666-65.621334V403.925333a67.626667 67.626667 0 0 0-65.621333-65.621333zM346.026667 222.464a50.176 50.176 0 1 1 100.352 0v50.218667H396.202667A51.2 51.2 0 0 1 346.026667 222.464z m135.125333 629.248H230.229333v-281.6h250.922667z m0-347.434667H172.288V403.925333h308.864z m96.469333-281.6a50.176 50.176 0 1 1 50.218667 50.218667h-50.218667z m216.192 629.248h-250.922666v-281.6h250.922666z m57.898667-347.434666h-308.821333V404.138667h308.821333z" p-id="3961"></path></svg>
