<svg t="1659804825730" class="icon" viewBox="0 0 1024 1024" version="1.1" xmlns="http://www.w3.org/2000/svg" p-id="1618" width="200" height="200"><path d="M604.16 843.52h-192.256c-55.04 0-106.496-29.696-134.144-77.312l-96-166.4a154.9824 154.9824 0 0 1 0-154.88l96-166.4a154.9056 154.9056 0 0 1 134.144-77.312h192.256c55.04 0 106.496 29.696 134.144 77.312l96 166.4a154.9824 154.9824 0 0 1 0 154.88l-96 166.4a155.7504 155.7504 0 0 1-134.144 77.312z m-192.256-583.168c-34.048 0-65.536 18.176-82.432 47.616l-96 166.4a95.7952 95.7952 0 0 0 0 95.232l96 166.4c16.896 29.44 48.64 47.616 82.432 47.616h192.256c34.048 0 65.536-18.176 82.432-47.616l96-166.4c16.896-29.44 16.896-65.792 0-95.232l-96-166.4a95.36 95.36 0 0 0-82.432-47.616h-192.256z" fill="#1B1F28" p-id="1619"></path><path d="M507.904 652.288c-71.936 0-130.304-58.368-130.304-130.304s58.368-130.304 130.304-130.304 130.304 58.368 130.304 130.304-58.368 130.304-130.304 130.304z m0-200.96c-38.912 0-70.656 31.744-70.656 70.656s31.744 70.656 70.656 70.656a70.656 70.656 0 1 0 0-141.312z" fill="#005CFF" p-id="1620"></path></svg>