<svg t="1659804653084" class="icon" viewBox="0 0 1024 1024" version="1.1" xmlns="http://www.w3.org/2000/svg" p-id="956" width="200" height="200"><path d="M858.368 209.92l-0.768-1.536c-0.256-0.512-0.512-1.28-1.024-1.792-5.376-9.472-15.36-15.872-26.88-15.872h-147.968c-17.152 0-31.232 14.08-31.232 31.232 0 17.152 14.08 31.232 31.232 31.232h75.776l-197.632 197.632c-12.288 12.288-12.288 32 0 44.032 6.144 6.144 14.08 9.216 22.016 9.216s15.872-3.072 22.016-9.216l248.832-248.832c9.728-9.728 11.52-24.32 5.632-36.096z" fill="#005CFF" p-id="957"></path><path d="M581.632 861.184h-181.76c-136.704 0-248.064-111.36-248.064-248.064v-181.76c0-136.704 111.36-248.064 248.064-248.064h181.76c17.152 0 31.232 14.08 31.232 31.232s-14.08 31.232-31.232 31.232h-181.76c-102.4 0-185.856 83.2-185.856 185.856v181.76c0 102.4 83.2 185.856 185.856 185.856h181.76c102.4 0 185.856-83.2 185.856-185.856v-181.76c0-17.152 14.08-31.232 31.232-31.232s31.232 14.08 31.232 31.232v181.76c-0.256 136.448-111.616 247.808-248.32 247.808z" fill="#1B1F28" p-id="958"></path></svg>