<svg t="1666146462078" class="icon" viewBox="0 0 1024 1024" version="1.1" xmlns="http://www.w3.org/2000/svg" p-id="3542" width="200" height="200"><path d="M870.912 906.24H158.208A86.46656 86.46656 0 0 1 71.68 820.08576v-558.592a86.46144 86.46144 0 0 1 86.528-86.1696h328.93952a29.81888 29.81888 0 1 1 0 59.63776H158.208a26.624 26.624 0 0 0-26.624 26.53184v558.592a26.624 26.624 0 0 0 26.624 26.53184h712.704a26.624 26.624 0 0 0 26.624-26.53184v-299.08992a29.952 29.952 0 0 1 59.904 0v299.08992A86.46656 86.46656 0 0 1 870.912 906.24z" fill="#0066ed" p-id="3543"></path><path d="M925.4144 231.79264l-141.312-112.60416a30.208 30.208 0 0 0-42.24512 4.5824 29.696 29.696 0 0 0 4.608 41.92768L829.62944 231.936c-143.73888 6.76352-267.70432 75.14624-360.84736 199.78752a688.00512 688.00512 0 0 0-106.45504 211.11808 30.03392 30.03392 0 0 0 58.0608 15.36 639.2576 639.2576 0 0 1 97.792-192.44032c87.20384-115.89632 199.51104-174.63808 334.02368-174.7712L783.25248 385.6384a29.696 29.696 0 0 0 6.74304 41.64096 30.208 30.208 0 0 0 41.95328-6.69184L932.352 282.7776a37.12512 37.12512 0 0 0-6.9376-50.98496z" fill="#FD9A16" p-id="3544"></path></svg>