<svg t="1666250400891" class="icon" viewBox="0 0 1024 1024" version="1.1" xmlns="http://www.w3.org/2000/svg" p-id="4434" width="200" height="200"><path d="M157.781333 516.138667v-247.466667a30.890667 30.890667 0 0 1 25.6-29.866667 714.624 714.624 0 0 0 153.6-38.4 452.693333 452.693333 0 0 0 153.6-85.333333c4.266667 0 4.266667-4.266667 8.533334-4.266667a26.197333 26.197333 0 0 1 34.133333 0l4.266667 4.266667a452.266667 452.266667 0 0 0 153.6 85.333333 712.533333 712.533333 0 0 0 153.6 38.4 51.797333 51.797333 0 0 1 30.08 29.866667v247.466667c0 196.266667-247.466667 396.8-358.4 396.8-115.413333 0.128-358.613333-200.448-358.613334-396.8z m200.533334-256a673.024 673.024 0 0 1-140.8 38.4v221.866666c0 170.666667 230.4 332.8 294.4 332.8 68.266667 0 294.4-162.133333 294.4-332.8v-221.866666a668.842667 668.842667 0 0 1-140.8-38.4 185.898667 185.898667 0 0 0-307.2 0z m81.066666 413.866666l-123.733333-136.533333a33.194667 33.194667 0 0 1 46.933333-46.933333l93.866667 115.2 230.4-213.333334a33.194667 33.194667 0 0 1 46.933333 46.933334l-251.733333 234.666666a31.146667 31.146667 0 0 1-21.333333 8.533334 32.384 32.384 0 0 1-21.333334-8.448z" p-id="4435" fill="#cdcdcd"></path></svg>
