<svg t="1656472488603" class="icon" viewBox="0 0 1024 1024" version="1.1" xmlns="http://www.w3.org/2000/svg" p-id="1488" width="128" height="128"><path d="M832 938.666667h-170.666667c-59.733333 0-106.666667-46.933333-106.666666-106.666667v-170.666667c0-59.733333 46.933333-106.666667 106.666666-106.666666h170.666667c59.733333 0 106.666667 46.933333 106.666667 106.666666v170.666667c0 59.733333-46.933333 106.666667-106.666667 106.666667z m-170.666667-298.666667c-12.8 0-21.333333 8.533333-21.333333 21.333333v170.666667c0 12.8 8.533333 21.333333 21.333333 21.333333h170.666667c12.8 0 21.333333-8.533333 21.333333-21.333333v-170.666667c0-12.8-8.533333-21.333333-21.333333-21.333333h-170.666667zM362.666667 85.333333H192C134.4 85.333333 85.333333 132.266667 85.333333 192v170.666667c0 59.733333 46.933333 106.666667 106.666667 106.666666h170.666667c59.733333 0 106.666667-46.933333 106.666666-106.666666V192c0-59.733333-46.933333-106.666667-106.666666-106.666667zM832 85.333333h-170.666667c-59.733333 0-106.666667 46.933333-106.666666 106.666667v170.666667c0 59.733333 46.933333 106.666667 106.666666 106.666666h170.666667c59.733333 0 106.666667-46.933333 106.666667-106.666666V192c0-59.733333-46.933333-106.666667-106.666667-106.666667zM362.666667 554.666667H192c-59.733333 0-106.666667 46.933333-106.666667 106.666666v170.666667c0 59.733333 46.933333 106.666667 106.666667 106.666667h170.666667c59.733333 0 106.666667-46.933333 106.666666-106.666667v-170.666667c0-59.733333-46.933333-106.666667-106.666666-106.666666z" fill="#80B8F8" p-id="1489"></path></svg>