<svg t="1666146443487" class="icon" viewBox="0 0 1024 1024" version="1.1" xmlns="http://www.w3.org/2000/svg" p-id="3375" width="200" height="200"><path d="M884.89472 860.16H144.22528A77.75232 77.75232 0 0 1 66.56 782.47936v-130.2272a40.59648 40.59648 0 0 1 34.84672-39.936 101.3248 101.3248 0 0 0 0-200.61696A40.58624 40.58624 0 0 1 66.56 371.75296V241.52576A77.75232 77.75232 0 0 1 144.22528 163.84h740.66944A77.7472 77.7472 0 0 1 962.56 241.52576v129.85856a40.448 40.448 0 0 1-35.75296 40.05376 101.28384 101.28384 0 0 0 0 201.13408 40.41216 40.41216 0 0 1 35.75296 40.05376v129.85344A77.75232 77.75232 0 0 1 884.89472 860.16zM120.32 663.48544v118.99392a23.94112 23.94112 0 0 0 23.9104 23.9104h740.66432a23.94112 23.94112 0 0 0 23.91552-23.9104V664.1152a155.04384 155.04384 0 0 1 0-304.22528V241.52576a23.94112 23.94112 0 0 0-23.91552-23.9104H144.22528a23.94112 23.94112 0 0 0-23.9104 23.9104v118.99392a155.0848 155.0848 0 0 1 0.00512 302.96576z m536.67328 61.60896H372.1216a26.87488 26.87488 0 1 1 0-53.76h284.87168a26.87488 26.87488 0 1 1 0 53.76z" fill="#0066ed" p-id="3376"></path><path d="M587.55584 444.86144a94.60224 94.60224 0 1 0-146.00704 0 156.97408 156.97408 0 0 0-82.32448 138.24 26.78272 26.78272 0 1 0 53.57056 0 101.76 101.76 0 1 1 203.52 0 26.78784 26.78784 0 1 0 53.57056 0 156.96896 156.96896 0 0 0-82.3296-138.24zM514.56 342.85568a41.39008 41.39008 0 1 1-41.0368 41.39008 41.25696 41.25696 0 0 1 41.0368-41.39008z" fill="#FD9A16" p-id="3377"></path></svg>