<svg t="1659804877198" class="icon" viewBox="0 0 1024 1024" version="1.1" xmlns="http://www.w3.org/2000/svg" p-id="1954" width="200" height="200"><path d="M500.224 694.528c-56.576 0-102.912-46.08-102.912-102.912a102.912 102.912 0 0 1 205.824 0c0 56.832-46.336 102.912-102.912 102.912z m0-146.944a44.032 44.032 0 1 0 0 88.064 44.032 44.032 0 0 0 0-88.064z" fill="#005CFF" p-id="1955"></path><path d="M733.44 318.72h-84.224c-1.28-77.056-64-139.264-141.312-139.264-77.312 0-140.032 62.208-141.312 139.264h-84.224c-64.512 0-116.992 52.48-116.992 116.992V747.52c0 64.512 52.48 116.992 116.992 116.992h450.816c64.512 0 116.992-52.48 116.992-116.992V435.712a116.736 116.736 0 0 0-116.736-116.992z m-225.536-80.384c44.8 0 81.408 35.84 82.432 80.384h-165.12c1.536-44.544 37.888-80.384 82.688-80.384zM791.808 747.52c0 32.256-26.112 58.368-58.368 58.368H282.624c-32.256 0-58.368-26.112-58.368-58.368V435.712c0-32.256 26.112-58.368 58.368-58.368h450.816c32.256 0 58.368 26.112 58.368 58.368V747.52z" fill="#1B1F28" p-id="1956"></path></svg>