<svg t="1656513517874" class="icon" viewBox="0 0 1024 1024" version="1.1" xmlns="http://www.w3.org/2000/svg" p-id="1567" width="200" height="200"><path d="M511.5 61C324.552 61 173 212.552 173 399.5S324.552 738 511.5 738 850 586.448 850 399.5 698.448 61 511.5 61z m0 60C665.311 121 790 245.689 790 399.5S665.311 678 511.5 678 233 553.311 233 399.5 357.689 121 511.5 121z" fill="#4633FF" p-id="1568"></path><path d="M660 645.237c16.403 0 29.731 13.164 29.996 29.504l0.004 0.496V896c0 22.779-24.34 37.163-44.232 26.41l-0.601-0.334L511.5 846.042l-133.667 76.034c-19.8 11.263-44.337-2.781-44.826-25.388L333 896V675.237c0-16.569 13.431-30 30-30 16.403 0 29.731 13.164 29.996 29.504l0.004 0.496V844.42l103.667-58.968a30 30 0 0 1 29.227-0.246l0.44 0.246L630 844.42V675.237c0-16.403 13.164-29.731 29.504-29.996l0.496-0.004z" fill="#4633FF" p-id="1569"></path><path d="M363.255 379.46c11.598-11.598 30.331-11.714 42.072-0.348l0.354 0.348 84.144 84.146L638.32 315.113c11.599-11.598 30.332-11.714 42.073-0.348l0.353 0.348c11.599 11.599 11.715 30.332 0.348 42.073l-0.348 0.354L511.04 527.245c-11.599 11.599-30.332 11.715-42.073 0.348l-0.354-0.348-105.358-105.358c-11.716-11.716-11.716-30.711 0-42.427z" fill="#48EBE9" p-id="1570"></path></svg>