<svg t="1656513459247" class="icon" viewBox="0 0 1024 1024" version="1.1" xmlns="http://www.w3.org/2000/svg" p-id="1259" width="200" height="200"><path d="M512 98C283.354 98 98 283.354 98 512s185.354 414 414 414 414-185.354 414-414S740.646 98 512 98z m0 60c195.509 0 354 158.491 354 354S707.509 866 512 866 158 707.509 158 512s158.491-354 354-354z" fill="#4633FF" p-id="1260"></path><path d="M512 318.929m40 0a40 40 0 1 0-80 0 40 40 0 1 0 80 0Z" fill="#48EBE9" p-id="1261"></path><path d="M512.052 774.071c-16.403 0.028-29.754-13.113-30.047-29.452l-0.005-0.496-0.5-290.071c-0.029-16.569 13.38-30.023 29.948-30.052 16.403-0.028 29.754 13.113 30.047 29.452l0.005 0.496 0.5 290.071c0.029 16.569-13.38 30.023-29.948 30.052z" fill="#48EBE9" p-id="1262"></path></svg>