<svg t="1656513581076" class="icon" viewBox="0 0 1024 1024" version="1.1" xmlns="http://www.w3.org/2000/svg" p-id="1890" width="200" height="200"><path d="M818 143.372H206c-59.647 0-108 48.353-108 108v407c0 59.647 48.353 108 108 108h612c59.647 0 108-48.353 108-108v-407c0-59.647-48.353-108-108-108z m-612 60h612c26.51 0 48 21.49 48 48v407c0 26.51-21.49 48-48 48H206c-26.51 0-48-21.49-48-48v-407c0-26.51 21.49-48 48-48zM775.99 836.075c16.568 0 30 13.431 30 30 0 16.403-13.165 29.731-29.505 29.996l-0.496 0.004H248.622c-16.568 0-30-13.432-30-30 0-16.403 13.165-29.731 29.504-29.996l0.496-0.004H775.99z" fill="#4633FF" p-id="1891"></path><path d="M345.5 401.54c16.403 0 29.731 13.164 29.996 29.503l0.004 0.496V594.21c0 16.569-13.431 30-30 30-16.403 0-29.731-13.164-29.996-29.504l-0.004-0.496V431.54c0-16.57 13.431-30 30-30zM512.5 283.54c16.403 0 29.731 13.164 29.996 29.504l0.004 0.496V594.21c0 16.569-13.431 30-30 30-16.403 0-29.731-13.164-29.996-29.504l-0.004-0.496V313.54c0-16.568 13.431-30 30-30zM679.5 341.54c16.403 0 29.731 13.165 29.996 29.505l0.004 0.496v223.667c0 16.569-13.431 30-30 30-16.403 0-29.731-13.164-29.996-29.504l-0.004-0.496V371.541c0-16.569 13.431-30 30-30z" fill="#48EBE9" p-id="1892"></path></svg>