<svg t="1662707024504" class="icon" viewBox="0 0 1024 1024" version="1.1" xmlns="http://www.w3.org/2000/svg" p-id="2389" width="200" height="200"><path d="M511.809665 552.891316c-65.335031 0-126.760009-25.442462-172.95819-71.640644-46.199205-46.199205-71.641667-107.623159-71.641667-172.95819s25.442462-126.760009 71.641667-172.959214c46.198182-46.198182 107.623159-71.641667 172.95819-71.641667 65.335031 0 126.758985 25.442462 172.959214 71.641667 46.198182 46.199205 71.641667 107.623159 71.641667 172.959214s-25.442462 126.758985-71.641667 172.95819C638.56865 527.448854 577.144696 552.891316 511.809665 552.891316zM511.809665 129.183198c-98.760305 0-179.108261 80.347956-179.108261 179.108261s80.347956 179.108261 179.108261 179.108261c98.761328 0 179.108261-80.347956 179.108261-179.108261S610.570993 129.183198 511.809665 129.183198z" p-id="2390" fill="#00B7B6"></path><path d="M827.248917 959.658599 196.371436 959.658599c-41.46846 0-79.719646-18.876929-104.94619-51.791573-25.091468-32.738635-33.42118-74.315566-22.899546-114.164133l55.250348-241.061264 0.160659-0.595564c16.743336-62.196551 72.847122-105.902982 137.028886-107.138112l99.05604-16.034185 10.465352 64.650439-104.087637 16.848737-2.632967 0c-35.602869 0-66.953901 23.88192-76.440973 58.151421l-55.229882 240.972237-0.160659 0.595564c-5.439896 20.209274-1.258667 41.327244 11.471262 57.93755 12.729929 16.610306 32.035624 26.13831 52.964282 26.13831l630.877481 0c20.928658 0 40.23333-9.528004 52.964282-26.13831 12.730952-16.610306 16.912182-37.728276 11.471262-57.93755l-0.297782-1.196245-55.093782-240.369509c-9.487072-34.270525-40.838104-58.154491-76.440973-58.154491l-2.63092 0L653.060713 493.523183l10.457166-64.651462 99.131765 16.034185c64.183811 1.236154 120.28862 44.941562 137.031956 107.138112l0.297782 1.196245 55.114249 240.461607c10.521634 39.84959 2.191922 81.424474-22.899546 114.163109C906.968563 940.78167 868.718401 959.658599 827.248917 959.658599z" p-id="2391" fill="#00B7B6"></path></svg>