<svg t="1656256375612" class="icon" viewBox="0 0 1024 1024" version="1.1" xmlns="http://www.w3.org/2000/svg" p-id="32473" width="128" height="128"><path d="M510.751841 0.988338c-281.365652 0-509.452736 228.08199-509.452737 509.452737 0 281.365652 228.087085 509.452736 509.452737 509.452736s509.452736-228.087085 509.452736-509.452736c0-281.370746-228.087085-509.452736-509.452736-509.452737" fill="#5B7373" p-id="32474"></path><path d="M510.751841 26.460975c266.866627 0 483.9801 217.113473 483.980099 483.9801s-217.113473 483.9801-483.980099 483.980099-483.9801-217.113473-483.9801-483.980099 217.113473-483.9801 483.9801-483.9801" fill="#FFFFFF" p-id="32475"></path><path d="M468.727085 561.539184l-50.308458-34.123144S309.645373 612.718806 351.92995 707.268139a29.731662 29.731662 0 0 0 25.737552 17.530269c32.039483 1.518169 99.791602-10.718886 141.36804-129.13608l-50.308457-34.123144z" fill="#FF8B00" p-id="32476"></path><path d="M608.362985 465.074308s130.852935 93.229851 21.498906 264.125772c-0.647005 1.008716-2.20593 0.743801-2.455563-0.433035-3.820896-17.79009-25.778308-104.453095-98.278527-146.880319l79.235184-116.817512zM507.058308 396.359323S372.03805 309.258189 253.707463 474.050866c-0.708139 0.978149 0.122269 2.328199 1.304199 2.124418 17.942925-3.026149 106.582607-14.672239 172.811462 36.996457L507.058308 396.359323z" fill="#5B7373" p-id="32477"></path><path d="M760.50595 372.053333c55.93791-106.949413-14.183164-219.411104-14.183164-219.411104s-130.4199-23.562189-209.104876 67.960995c-55.764697 64.863522-122.604896 187.412378-156.809552 253.2999a56.182448 56.182448 0 0 0 18.340299 72.383045l55.18392 37.424398 55.183921 37.434587a56.197731 56.197731 0 0 0 74.033671-9.720358c48.571224-56.151881 137.710169-163.56999 177.355781-239.366368" fill="#E6FFFF" p-id="32478"></path><path d="M708.276856 149.916657c-44.633154 0-119.115144 10.265473-171.058946 70.686567-55.764697 64.863522-122.604896 187.407284-156.809552 253.2999a56.182448 56.182448 0 0 0 18.340299 72.377951l55.18392 37.429492 55.183921 37.429493a56.034706 56.034706 0 0 0 31.530029 9.694885c15.823602 0 31.468896-6.663642 42.498548-19.410149 48.571224-56.156975 137.715264-163.56999 177.360875-239.366368 55.93791-106.954507-14.183164-219.421294-14.183164-219.421294s-15.069612-2.720478-38.04593-2.720477m0 20.378109c10.499821 0 19.211463 0.621532 25.248477 1.227781 13.576915 26.134925 50.756776 111.111642 8.925612 191.095722-38.565572 73.722905-126.018229 179.174527-174.716816 235.469054a35.78396 35.78396 0 0 1-47.180418 6.189851l-55.18392-37.429492-55.178826-37.429493a35.814527 35.814527 0 0 1-11.702129-46.125851c34.301453-66.060736 99.934249-186.306866 154.180776-249.407681 47.567602-55.326567 117.912836-63.589891 155.607244-63.589891" fill="#5B7373" p-id="32479"></path><path d="M613.895642 335.433871c-25.885294-17.555741-32.630448-52.769114-15.074707-78.649314 17.550647-25.880199 52.76402-32.630448 78.649314-15.074706 25.880199 17.550647 32.630448 52.76402 15.074706 78.649313-17.555741 25.880199-52.769114 32.630448-78.649313 15.079801m74.792756-110.271045c-35.014687-23.750687-82.658706-14.621294-106.409393 20.398488-23.750687 35.014687-14.621294 82.653612 20.398488 106.409393 35.014687 23.750687 82.653612 14.621294 106.409393-20.398488 23.750687-35.019781 14.616199-82.658706-20.398488-106.409393M215.615682 872.529512l-8.339742-5.848517 101.890548-145.19403 8.339741 5.848518zM276.780577 859.757532l-8.395781-5.772099 56.039801-81.512438 8.395781 5.7721z" fill="#5B7373" p-id="32480"></path></svg>