<svg t="1651281366428" class="icon" viewBox="0 0 1024 1024" version="1.1" xmlns="http://www.w3.org/2000/svg" p-id="12004" width="200" height="200"><path d="M0 0m232.515895 0l558.038147 0q232.515895 0 232.515894 232.515895l0 558.038147q0 232.515895-232.515894 232.515894l-558.038147 0q-232.515895 0-232.515895-232.515894l0-558.038147q0-232.515895 232.515895-232.515895Z" fill="#3FCE8C" p-id="12005"></path><path d="M431.5495 282.506812C309.24614 282.506812 209.264305 365.514986 209.264305 471.542234c0 60.686649 33.249773 110.910082 89.053588 149.740236l-23.25159 66.732062 77.660309-39.06267a374.583106 374.583106 0 0 0 77.892825 11.160763h20.461399a160.668483 160.668483 0 0 1-6.975477-46.503179 181.82743 181.82743 0 0 1 189.035422-175.5495 159.970936 159.970936 0 0 1 21.391462 1.395095c-18.13624-89.751135-113.932788-156.948229-222.982743-156.948229z m-74.637602 149.740236a27.436876 27.436876 0 1 1 27.20436-27.20436 27.20436 27.20436 0 0 1-27.20436 27.20436z m156.018166 0a27.436876 27.436876 0 0 1 0-54.641235 27.436876 27.436876 0 1 1 0 54.641235z" fill="#FFFFFF" p-id="12006"></path><path d="M837.057221 610.121708c0-88.821072-89.053588-161.133515-188.570391-161.133515-105.562216 0-189.035422 72.312443-189.035422 161.133515s83.473206 161.366031 189.035422 161.36603a282.04178 282.04178 0 0 0 66.732062-11.160763l60.919164 33.249773-16.508628-55.338783c44.17802-33.482289 77.427793-77.892825 77.427793-128.116257zM589.892825 582.2198a23.251589 23.251589 0 1 1 22.08901-22.08901 23.251589 23.251589 0 0 1-22.08901 22.08901z m120.675749 0a23.251589 23.251589 0 1 1 23.251589-22.08901 21.856494 21.856494 0 0 1-23.251589 22.08901z" fill="#FFFFFF" p-id="12007"></path></svg>