<svg t="1651044824647" class="icon" viewBox="0 0 1024 1024" version="1.1" xmlns="http://www.w3.org/2000/svg" p-id="44170" width="200" height="200"><path d="M513.3824 510.3104a213.3504 213.3504 0 1 1 207.6672-213.2992 212.0704 212.0704 0 0 1-207.6672 213.2992z m0-359.2192a146.0224 146.0224 0 1 0 140.288 145.92 143.7696 143.7696 0 0 0-140.288-145.92z m307.2 789.1456H203.3152a84.48 84.48 0 0 1-78.592-78.5408v-112.2304a196.7104 196.7104 0 0 1 190.8224-190.8224h392.8576a196.7104 196.7104 0 0 1 190.8224 190.8224v112.2304a84.48 84.48 0 0 1-78.5408 78.592zM203.3152 872.9088h617.3696a12.0832 12.0832 0 0 0 11.2128-11.2128v-112.2304a124.5696 124.5696 0 0 0-123.4944-123.4944H315.5456a124.5696 124.5696 0 0 0-123.4944 123.4944v112.2304a12.0832 12.0832 0 0 0 11.264 11.2128z" p-id="44171" fill="#515151"></path></svg>